<svg width="28" height="27" viewBox="0 0 28 27" fill="none" xmlns="http://www.w3.org/2000/svg">
<path d="M9.86192 0.488281H23.3034C24.3543 0.488281 25.309 0.917183 26.0007 1.60908C26.6926 2.30097 27.1215 3.25571 27.1215 4.30634V17.647C27.1215 18.6978 26.6926 19.6525 26.0007 20.3442C25.3088 21.0361 24.3541 21.465 23.3034 21.465H21.8462V23.0234C21.8462 24.0742 21.4163 25.0289 20.7254 25.7206C20.0335 26.4125 19.0788 26.8414 18.0281 26.8414H4.58661C3.53577 26.8414 2.58104 26.4125 1.88935 25.7206C1.19746 25.0287 0.768555 24.074 0.768555 23.0234V9.68274C0.768555 8.6319 1.19746 7.67717 1.88935 6.98548C2.58125 6.29359 3.53598 5.86469 4.58661 5.86469H6.04386V4.30634C6.04386 3.2555 6.47377 2.30077 7.16466 1.60908C7.85655 0.917183 8.81128 0.488281 9.86192 0.488281V0.488281ZM20.55 21.4649H9.86192C8.81108 21.4649 7.85634 21.036 7.16466 20.3441C6.47276 19.6522 6.04386 18.6975 6.04386 17.6469V7.16112H4.58661C3.89307 7.16112 3.26351 7.44484 2.80604 7.90228C2.34857 8.35971 2.06489 8.99013 2.06489 9.68285V23.0235C2.06489 23.717 2.34861 24.3466 2.80604 24.804C3.26348 25.2615 3.89389 25.5452 4.58661 25.5452H18.0281C18.7209 25.5452 19.3512 25.2615 19.8087 24.804C20.2662 24.3466 20.5499 23.7162 20.5499 23.0235L20.55 21.4649ZM23.3028 1.78446H9.86125C9.16853 1.78446 8.53815 2.06818 8.08068 2.52562C7.62321 2.98305 7.33952 3.61347 7.33952 4.30619V17.6458C7.33952 18.3385 7.62324 18.9689 8.08068 19.4264C8.53811 19.8838 9.16853 20.1675 9.86125 20.1675H23.3028C23.9963 20.1675 24.6259 19.8838 25.0833 19.4264C25.5408 18.9689 25.8245 18.3385 25.8245 17.6458V4.30516C25.8245 3.61161 25.5408 2.98206 25.0833 2.52459C24.6259 2.06713 23.9955 1.78343 23.3028 1.78343V1.78446Z" fill="url(#paint0_linear_2649_5904)"/>
<defs>
<linearGradient id="paint0_linear_2649_5904" x1="-2.57655" y1="16.7203" x2="32.564" y2="13.6649" gradientUnits="userSpaceOnUse">
<stop offset="0.0677083" stop-color="#B0CAFD"/>
<stop offset="0.700521" stop-color="#F7BCFF"/>
</linearGradient>
</defs>
</svg>
