<svg width="21" height="21" viewBox="0 0 21 21" fill="none" xmlns="http://www.w3.org/2000/svg">
<path fill-rule="evenodd" clip-rule="evenodd" d="M20.1528 10.7261C20.1528 16.2271 15.6934 20.6865 10.1924 20.6865C4.69138 20.6865 0.231934 16.2271 0.231934 10.7261C0.231934 5.22507 4.69138 0.765625 10.1924 0.765625C15.6934 0.765625 20.1528 5.22507 20.1528 10.7261ZM15.3763 9.26994C16.1801 9.26994 16.8325 9.92232 16.8325 10.7261C16.8325 11.3203 16.4714 11.8329 15.9937 12.0659C16.017 12.2056 16.0287 12.3454 16.0287 12.4969C16.0287 14.7336 13.4308 16.5393 10.2155 16.5393C7.00019 16.5393 4.40232 14.7336 4.40232 12.4969C4.40232 12.3454 4.41397 12.194 4.43727 12.0542C3.92468 11.8212 3.57519 11.3203 3.57519 10.7261C3.57519 9.92232 4.22757 9.26994 5.0314 9.26994C5.41584 9.26994 5.77698 9.43303 6.03327 9.67767C7.03514 8.94374 8.42145 8.48941 9.97085 8.44281L10.7048 4.97121C10.7281 4.90131 10.763 4.84307 10.8213 4.80812C10.8795 4.77317 10.9494 4.76152 11.0193 4.77317L13.4308 5.28575C13.5939 4.93626 13.9434 4.70327 14.3511 4.70327C14.922 4.70327 15.3879 5.16926 15.3879 5.74009C15.3879 6.31092 14.922 6.77691 14.3511 6.77691C13.7919 6.77691 13.3376 6.33422 13.3143 5.78669L11.1591 5.33235L10.4951 8.44281C12.0095 8.50106 13.3842 8.96704 14.3744 9.67767C14.6307 9.42138 14.9802 9.26994 15.3763 9.26994ZM7.90886 10.7261C7.33803 10.7261 6.87204 11.1921 6.87204 11.763C6.87204 12.3338 7.33803 12.7998 7.90886 12.7998C8.4797 12.7998 8.94568 12.3338 8.94568 11.763C8.94568 11.1921 8.4797 10.7261 7.90886 10.7261ZM10.2038 15.2579C10.5999 15.2579 11.9513 15.2113 12.6619 14.5006C12.7668 14.3958 12.7668 14.2327 12.6852 14.1162C12.5804 14.0113 12.4056 14.0113 12.3008 14.1162C11.8464 14.5589 10.9028 14.722 10.2155 14.722C9.52817 14.722 8.57289 14.5589 8.13021 14.1162C8.02536 14.0113 7.85061 14.0113 7.74577 14.1162C7.64092 14.221 7.64092 14.3958 7.74577 14.5006C8.44475 15.1996 9.80776 15.2579 10.2038 15.2579ZM11.4387 11.763C11.4387 12.3338 11.9047 12.7998 12.4755 12.7998C13.0464 12.7998 13.5123 12.3338 13.5123 11.763C13.5123 11.1921 13.0464 10.7261 12.4755 10.7261C11.9047 10.7261 11.4387 11.1921 11.4387 11.763Z" fill="white"/>
</svg>
