<svg width="21" height="17" viewBox="0 0 21 17" fill="none" xmlns="http://www.w3.org/2000/svg">
<path d="M7.15475 16.5224C14.5943 16.5224 18.6645 10.523 18.6645 5.32189C18.6645 5.15323 18.6607 4.98082 18.653 4.81216C19.4447 4.25494 20.128 3.56475 20.6707 2.77401C19.9333 3.09328 19.1504 3.30179 18.3487 3.39243C19.1928 2.90003 19.8249 2.1265 20.1277 1.21522C19.3336 1.67321 18.4651 1.99628 17.5595 2.17058C16.9494 1.53968 16.1426 1.12195 15.264 0.981975C14.3854 0.841998 13.4839 0.987571 12.6989 1.39619C11.9138 1.80481 11.289 2.45371 10.9209 3.24257C10.5529 4.03143 10.4621 4.91631 10.6627 5.7604C9.05468 5.68188 7.48158 5.27539 6.04538 4.56728C4.60917 3.85918 3.34192 2.86527 2.32576 1.64999C1.8093 2.5165 1.65126 3.54187 1.88377 4.51771C2.11627 5.49354 2.72188 6.34661 3.5775 6.90354C2.93515 6.88369 2.30687 6.71539 1.74458 6.41255V6.46128C1.744 7.37062 2.06705 8.25209 2.65881 8.95586C3.25057 9.65963 4.07452 10.1423 4.9906 10.3217C4.39557 10.4801 3.77106 10.5032 3.16539 10.3892C3.42389 11.1712 3.92683 11.8552 4.60403 12.3457C5.28123 12.8362 6.0989 13.1087 6.94292 13.1252C5.51003 14.2205 3.73999 14.8146 1.91789 14.8118C1.59476 14.8113 1.27194 14.792 0.951172 14.7541C2.80223 15.9097 4.9555 16.5235 7.15475 16.5224Z" fill="white"/>
</svg>
