<svg width="21" height="15" viewBox="0 0 21 15" fill="none" xmlns="http://www.w3.org/2000/svg">
<path d="M17.3639 2.0634C16.107 1.54249 14.7592 1.15872 13.35 0.93891C13.3244 0.934668 13.2987 0.94527 13.2855 0.966473C13.1122 1.24494 12.9202 1.60822 12.7857 1.89376C11.27 1.6888 9.76211 1.6888 8.2775 1.89376C8.14302 1.60187 7.94405 1.24494 7.76993 0.966473C7.75671 0.945977 7.73108 0.935376 7.70541 0.93891C6.29699 1.15801 4.9492 1.54179 3.69156 2.0634C3.68067 2.06764 3.67134 2.07471 3.66515 2.08389C1.10867 5.53368 0.408345 8.89867 0.751901 12.2219C0.753456 12.2382 0.76356 12.2537 0.777552 12.2636C2.46424 13.3825 4.09809 14.0617 5.7016 14.5119C5.72726 14.519 5.75445 14.5105 5.77078 14.4914C6.15009 14.0235 6.48821 13.5302 6.77812 13.0114C6.79523 12.981 6.7789 12.945 6.74393 12.933C6.20761 12.7492 5.69693 12.5251 5.20569 12.2707C5.16684 12.2502 5.16372 12.2 5.19947 12.176C5.30285 12.106 5.40625 12.0332 5.50496 11.9597C5.52282 11.9463 5.5477 11.9435 5.5687 11.9519C8.79593 13.2828 12.2898 13.2828 15.479 11.9519C15.5 11.9427 15.5248 11.9456 15.5435 11.959C15.6422 12.0325 15.7456 12.106 15.8497 12.176C15.8855 12.2 15.8832 12.2502 15.8443 12.2707C15.3531 12.5301 14.8424 12.7492 14.3053 12.9322C14.2703 12.9443 14.2548 12.981 14.2719 13.0114C14.568 13.5295 14.9061 14.0228 15.2784 14.4907C15.294 14.5105 15.3219 14.519 15.3476 14.5119C16.9589 14.0617 18.5927 13.3825 20.2794 12.2636C20.2942 12.2537 20.3035 12.2389 20.3051 12.2226C20.7163 8.38058 19.6164 5.04318 17.3895 2.08459C17.3841 2.07471 17.3748 2.06764 17.3639 2.0634ZM7.26006 10.1984C6.28844 10.1984 5.48785 9.3927 5.48785 8.4032C5.48785 7.41371 6.27291 6.60799 7.26006 6.60799C8.25495 6.60799 9.04779 7.42078 9.03223 8.4032C9.03223 9.3927 8.24717 10.1984 7.26006 10.1984ZM13.8125 10.1984C12.8409 10.1984 12.0403 9.3927 12.0403 8.4032C12.0403 7.41371 12.8253 6.60799 13.8125 6.60799C14.8074 6.60799 15.6002 7.42078 15.5847 8.4032C15.5847 9.3927 14.8074 10.1984 13.8125 10.1984Z" fill="white"/>
</svg>
