<svg width="20" height="18" viewBox="0 0 20 18" fill="none" xmlns="http://www.w3.org/2000/svg">
<path fill-rule="evenodd" clip-rule="evenodd" d="M12.1764 2.88313C10.4103 3.63655 6.88048 5.19594 1.58706 7.56129C0.727494 7.91187 0.277214 8.25484 0.236223 8.5902C0.166947 9.15696 0.858954 9.38013 1.80129 9.68403C1.92947 9.72537 2.06229 9.76821 2.19845 9.8136C3.12556 10.1227 4.3727 10.4843 5.02103 10.4987C5.60913 10.5117 6.26552 10.263 6.99019 9.75266C11.936 6.32855 14.489 4.59784 14.6493 4.56053C14.7624 4.53421 14.9191 4.50111 15.0253 4.5979C15.1315 4.69468 15.121 4.87798 15.1098 4.92715C15.0412 5.22689 12.3248 7.817 10.9191 9.15738C10.4809 9.57525 10.17 9.87166 10.1065 9.93935C9.96411 10.091 9.81903 10.2344 9.6796 10.3723C8.81829 11.2239 8.17239 11.8625 9.71536 12.9053C10.4569 13.4065 11.0502 13.8209 11.6421 14.2344C12.2886 14.6859 12.9334 15.1362 13.7676 15.6971C13.9802 15.84 14.1832 15.9884 14.3809 16.133C15.1332 16.6831 15.8091 17.1772 16.6441 17.0984C17.1293 17.0526 17.6305 16.5847 17.885 15.1891C18.4866 11.8909 19.669 4.74473 19.9422 1.79995C19.9662 1.54195 19.9361 1.21176 19.9119 1.06682C19.8877 0.92187 19.8372 0.715353 19.6535 0.562474C19.4359 0.381421 19.1 0.343241 18.9498 0.345823C18.2669 0.358294 17.2191 0.731972 12.1764 2.88313Z" fill="white"/>
</svg>
