<svg width="21" height="15" viewBox="0 0 21 15" fill="none" xmlns="http://www.w3.org/2000/svg">
<path d="M20.0335 3.74386C20.0335 3.74386 19.839 2.3704 19.2398 1.76733C18.4811 0.973605 17.6329 0.969714 17.2438 0.923025C14.458 0.720703 10.2754 0.720703 10.2754 0.720703H10.2676C10.2676 0.720703 6.08499 0.720703 3.29917 0.923025C2.91009 0.969714 2.0619 0.973605 1.30319 1.76733C0.704006 2.3704 0.513357 3.74386 0.513357 3.74386C0.513357 3.74386 0.311035 5.35854 0.311035 6.96933V8.47896C0.311035 10.0898 0.509466 11.7044 0.509466 11.7044C0.509466 11.7044 0.704006 13.0779 1.2993 13.681C2.05801 14.4747 3.05405 14.4475 3.4976 14.5331C5.09283 14.6848 10.2715 14.7315 10.2715 14.7315C10.2715 14.7315 14.458 14.7237 17.2438 14.5253C17.6329 14.4786 18.4811 14.4747 19.2398 13.681C19.839 13.0779 20.0335 11.7044 20.0335 11.7044C20.0335 11.7044 20.2319 10.0936 20.2319 8.47896V6.96933C20.2319 5.35854 20.0335 3.74386 20.0335 3.74386ZM8.21326 10.3115V4.71267L13.5942 7.52183L8.21326 10.3115Z" fill="white"/>
</svg>
