<svg width="21" height="21" viewBox="0 0 21 21" fill="none" xmlns="http://www.w3.org/2000/svg">
<path d="M18.8364 0.765625H1.86086C1.04768 0.765625 0.390137 1.40761 0.390137 2.20133V19.2469C0.390137 20.0407 1.04768 20.6865 1.86086 20.6865H18.8364C19.6496 20.6865 20.311 20.0407 20.311 19.2508V2.20133C20.311 1.40761 19.6496 0.765625 18.8364 0.765625ZM6.30027 17.7412H3.34326V8.23208H6.30027V17.7412ZM4.82176 6.93644C3.87241 6.93644 3.10592 6.16995 3.10592 5.22449C3.10592 4.27902 3.87241 3.51253 4.82176 3.51253C5.76723 3.51253 6.53371 4.27902 6.53371 5.22449C6.53371 6.16606 5.76723 6.93644 4.82176 6.93644ZM17.3657 17.7412H14.4126V13.1189C14.4126 12.0178 14.3931 10.5977 12.8757 10.5977C11.3389 10.5977 11.1054 11.7999 11.1054 13.0411V17.7412H8.15618V8.23208H10.9887V9.5316H11.0276C11.4206 8.78457 12.3855 7.99474 13.8212 7.99474C16.8132 7.99474 17.3657 9.96348 17.3657 12.5236V17.7412Z" fill="white"/>
</svg>
