<svg width="153" height="40" viewBox="0 0 153 40" fill="none" xmlns="http://www.w3.org/2000/svg">
<path fill-rule="evenodd" clip-rule="evenodd" d="M0.642822 0V29.6104H5.98024V17.7097H19.2936V12.8248H5.98024V4.88856V4.88494H20.9026V0H0.642822Z" fill="white"/>
<path fill-rule="evenodd" clip-rule="evenodd" d="M24.5391 30.1298H29.9936V8.05188H24.5391V30.1298Z" fill="white"/>
<path fill-rule="evenodd" clip-rule="evenodd" d="M47.6067 15.4054C47.6067 14.2295 47.2648 13.2555 46.5835 12.4821C45.9034 11.7087 44.9653 11.3269 43.7718 11.3269C42.5783 11.3269 41.6402 11.7136 40.9601 12.4821C40.2788 13.2506 39.9369 14.2258 39.9369 15.4054C39.9369 16.5812 40.2752 17.5516 40.9601 18.3079C41.6402 19.0643 42.5783 19.4424 43.7718 19.4424C44.9653 19.4424 45.9034 19.0643 46.5835 18.3079C47.2684 17.5516 47.6067 16.5849 47.6067 15.4054ZM49.9012 32.8135C49.9012 32.1386 49.7212 31.6206 49.3586 31.2594C48.9961 30.8934 48.5605 30.6296 48.0471 30.4617C47.5337 30.2927 46.9752 30.1942 46.3803 30.1699C45.7805 30.1407 45.2354 30.1286 44.7329 30.1286H40.6499C40.0915 30.2976 39.6267 30.6137 39.252 31.0746C38.8773 31.5391 38.6899 32.1179 38.6899 32.8171C38.6899 33.5163 38.8773 34.0635 39.252 34.4575C39.6267 34.849 40.0915 35.153 40.6499 35.3622C41.2047 35.5726 41.8033 35.7039 42.4432 35.761C43.0832 35.8182 43.6538 35.8437 44.1502 35.8437C44.677 35.8437 45.2756 35.823 45.9435 35.7817C46.6127 35.7404 47.2356 35.6212 47.8183 35.4242C48.4011 35.2272 48.8951 34.9269 49.2978 34.5195C49.6968 34.1085 49.9012 33.5406 49.9012 32.8135ZM54.8165 32.6858C54.8165 34.117 54.4977 35.305 53.8578 36.2584C53.219 37.2129 52.399 37.9608 51.4001 38.508C50.4025 39.0539 49.2734 39.4406 48.0264 39.6631C46.7757 39.8893 45.553 40 44.3582 40C43.026 40 41.6974 39.9015 40.381 39.7045C39.061 39.5063 37.8334 39.0053 36.6922 38.1906C35.8612 37.6033 35.2139 36.9162 34.7565 36.1307C34.3002 35.3464 34.0679 34.4368 34.0679 33.3971C34.0679 32.4438 34.293 31.5671 34.737 30.7694C35.1811 29.9717 35.8211 29.3637 36.652 28.9405C35.9597 28.5502 35.4208 28.0067 35.0461 27.3208C34.6713 26.6338 34.484 25.9261 34.484 25.1953C34.484 23.3154 35.3441 21.8477 37.0681 20.7788C36.399 20.1052 35.8734 19.3233 35.4865 18.4234C35.0947 17.5273 34.9037 16.5192 34.9037 15.3968C34.9037 14.1067 35.1397 12.9588 35.613 11.9483C36.0851 10.9366 36.725 10.0976 37.5329 9.4239C38.3395 8.74902 39.2763 8.23953 40.3445 7.88932C41.4115 7.54033 42.5576 7.36401 43.7803 7.36401C44.6685 7.36401 45.5323 7.48318 46.3632 7.72151C47.1954 7.95985 47.9729 8.28816 48.6992 8.70768C49.1713 7.75435 49.7954 7.06366 50.574 6.62712C51.3515 6.1918 52.1995 5.97778 53.1168 5.97778H53.8261C54.1315 5.97778 54.3675 6.00697 54.5342 6.06047V10.1389L54.1193 10.0976C53.5074 10.0976 52.9574 10.1961 52.472 10.393C51.9878 10.5912 51.6569 10.9573 51.495 11.4874C52.2445 12.7204 52.6192 14.0362 52.6192 15.4382C52.6192 16.7004 52.3747 17.8227 51.8892 18.8016C51.405 19.7841 50.7565 20.611 49.9536 21.281C49.1469 21.9547 48.2101 22.4727 47.1419 22.8351C46.07 23.2011 44.9532 23.381 43.7876 23.381C42.5649 23.381 41.3993 23.184 40.2873 22.7937C40.0391 22.9336 39.7946 23.1391 39.5574 23.4017C39.3213 23.6692 39.2033 23.9866 39.2033 24.3477C39.2033 24.9934 39.46 25.4203 39.9734 25.6306C40.4869 25.8398 41.021 25.9468 41.5794 25.9468H45.1612C45.6868 25.9468 46.2574 25.9553 46.8694 25.9674C47.4801 25.9845 48.0994 26.038 48.7235 26.1365C49.3464 26.235 49.9584 26.3833 50.557 26.5767C51.1556 26.7736 51.7019 27.0533 52.2031 27.4145C53.1485 28.0602 53.8213 28.8335 54.2252 29.7261C54.6157 30.6381 54.8165 31.6206 54.8165 32.6858Z" fill="white"/>
<path fill-rule="evenodd" clip-rule="evenodd" d="M83.4045 29.7832V16.203C83.4045 14.8581 83.1758 13.8148 82.7159 13.0706C82.2596 12.3301 81.3751 11.9555 80.0709 11.9555C79.3214 11.9555 78.6815 12.1331 78.1559 12.4821C77.6303 12.8323 77.1899 13.2968 76.8431 13.8683C76.4964 14.4434 76.2397 15.0806 76.073 15.7798C75.9063 16.4827 75.8248 17.1648 75.8248 17.8397V29.7795H70.6565V16.203C70.6565 14.8581 70.429 13.8148 69.9679 13.0706C69.5117 12.3301 68.6272 11.9555 67.3229 11.9555C66.5735 11.9555 65.9335 12.1331 65.4079 12.4821C64.8823 12.8323 64.4334 13.2968 64.0745 13.8683C63.7119 14.4434 63.4516 15.0806 63.2849 15.7798C63.117 16.4827 63.0355 17.1648 63.0355 17.8397V29.7795H57.8684V7.92209H62.2009L62.6157 10.8259C63.2277 9.81782 64.0465 8.99216 65.0734 8.34647C66.1002 7.70078 67.34 7.37976 68.7817 7.37976C70.3098 7.37976 71.5897 7.69713 72.6165 8.3258C73.6434 8.95447 74.4391 9.83485 74.9926 10.9523C75.6326 9.80566 76.5134 8.92164 77.6376 8.30513C78.763 7.68862 80.0624 7.37976 81.5345 7.37976C83.8692 7.37976 85.6261 8.08747 86.8074 9.50531C87.9888 10.9244 88.5801 12.7617 88.5801 15.0356V29.7917H83.4045V29.7832Z" fill="white"/>
<path fill-rule="evenodd" clip-rule="evenodd" d="M107.033 16.6675C107.001 15.0721 106.557 13.7929 105.696 12.8432C105.339 12.4529 104.886 12.1453 104.343 11.9191C103.802 11.6966 103.157 11.581 102.404 11.581C101.601 11.581 100.892 11.7379 100.276 12.0468C99.6691 12.3544 99.1642 12.7618 98.7773 13.2676C98.3856 13.7443 98.1082 14.2501 97.9415 14.7803C97.7785 15.3105 97.6763 15.944 97.6519 16.6712H107.033V16.6675ZM112.242 19.0229C112.214 19.2211 112.201 19.4011 112.201 19.5701V20.4955H97.7006C97.7006 21.3381 97.8308 22.1358 98.096 22.8922C98.3612 23.6485 98.7603 24.2772 99.2822 24.783C99.674 25.1491 100.125 25.4616 100.639 25.7291C101.152 25.9966 101.768 26.1279 102.493 26.1279C103.244 26.1279 103.863 26.0501 104.348 25.8981C104.833 25.7449 105.273 25.4701 105.66 25.0797C106.157 24.5739 106.508 23.9574 106.704 23.229H111.704C111.647 23.8747 111.43 24.5824 111.056 25.3546C110.681 26.1279 110.286 26.7615 109.869 27.2673C108.953 28.3605 107.857 29.146 106.577 29.6227C105.297 30.0994 103.965 30.3377 102.579 30.3377C101.076 30.3377 99.7798 30.0908 98.6836 29.602C97.5826 29.1132 96.6044 28.459 95.7442 27.6491C94.6602 26.5839 93.8329 25.3096 93.2635 23.8261C92.6917 22.3413 92.407 20.701 92.407 18.9086C92.407 17.1442 92.6637 15.5075 93.1771 14.0118C93.6905 12.5113 94.4777 11.2321 95.5289 10.1632C96.3355 9.32416 97.3137 8.6505 98.4671 8.14465C99.6205 7.6388 100.945 7.38831 102.449 7.38831C104.062 7.38831 105.558 7.71662 106.952 8.37447C108.338 9.03232 109.479 10.0477 110.371 11.4217C111.174 12.6256 111.687 13.8549 111.912 15.1013C112.128 16.338 112.242 17.65 112.242 19.0229Z" fill="white"/>
<path fill-rule="evenodd" clip-rule="evenodd" d="M129.538 29.7831V16.372C129.538 15.0842 129.284 14.0738 128.788 13.3454C128.287 12.6182 127.345 12.2522 125.956 12.2522C125.038 12.2522 124.272 12.5112 123.661 13.0292C123.049 13.5472 122.565 14.2136 122.202 15.0271C121.84 15.8418 121.632 16.7866 121.578 17.864C121.521 18.945 121.493 19.9446 121.493 20.8699V29.7831H116.285V7.92328H120.661L121.037 10.7395C121.677 9.59161 122.586 8.74042 123.767 8.19444C124.948 7.64725 126.164 7.37122 127.411 7.37122C128.58 7.37122 129.615 7.56942 130.516 7.95976C131.416 8.35495 132.183 8.89242 132.81 9.57945C133.433 10.2665 133.915 11.0921 134.248 12.0589C134.583 13.0256 134.75 14.0689 134.75 15.1912V29.7795H129.538V29.7831Z" fill="white"/>
<path fill-rule="evenodd" clip-rule="evenodd" d="M152.331 29.4912C150.831 29.8815 149.343 30.0797 147.872 30.0797C145.676 30.0797 144.037 29.4826 142.953 28.291C141.869 27.0981 141.328 25.4541 141.328 23.3528V12.2521H137.366V7.92192H141.328V2.37215L146.536 1.0686V7.92192H151.997V12.2521H146.536V22.8883C146.536 23.731 146.727 24.339 147.119 24.7184C147.51 25.0966 148.122 25.285 148.953 25.285C149.506 25.285 150.028 25.2729 150.513 25.2437C150.998 25.2157 151.601 25.1622 152.326 25.0759V29.4912H152.331Z" fill="white"/>
<path fill-rule="evenodd" clip-rule="evenodd" d="M30.4574 3.07524C30.4574 1.43852 29.1459 0 27.3683 0C25.5543 0 24.2793 1.43852 24.2793 3.07524C24.2793 4.78979 25.5543 6.07266 27.3683 6.07266C29.1459 6.07266 30.4574 4.78979 30.4574 3.07524Z" fill="white"/>
</svg>
