<svg width="159" height="50" viewBox="0 0 159 50" fill="none" xmlns="http://www.w3.org/2000/svg">
<path d="M6.74406 16.9351C7.53478 16.9351 8.35187 16.9351 9.1426 16.9351C9.1426 17.4096 9.1426 17.7258 9.1426 18.0685C6.24326 18.0685 3.37028 18.0685 0.470947 18.0685C0.470947 17.7522 0.470947 17.2778 0.470947 16.9351C1.26168 16.9351 2.07876 16.9351 2.86949 16.9351C2.86949 16.6188 2.86949 16.4607 2.86949 16.3025C2.86949 11.4791 2.86949 6.84016 2.86949 2.01672C2.86949 1.54228 2.71134 1.38413 2.23691 1.38413C1.60432 1.38413 1.10353 1.38413 0.470947 1.38413C0.470947 0.909697 0.470947 0.593407 0.470947 0.0926126C0.629093 0.0926126 0.787238 0.0926126 0.945384 0.0926126C3.84472 0.0926126 6.7177 0.0926126 9.77518 0.0926126C10.9086 0.0926126 12.0156 0.250759 12.9908 0.56705C15.0731 1.35778 16.3646 3.28188 16.2064 5.54864C16.0483 7.78903 14.5986 9.39684 12.3582 9.87128C10.7504 10.1876 9.1426 10.1876 7.71929 10.1876C6.92856 10.1876 6.58591 10.3457 6.58591 10.9783C6.58591 12.7443 6.58591 14.3521 6.58591 16.118C6.74406 16.3025 6.74406 16.6188 6.74406 16.9351ZM6.58591 1.22599C6.58591 3.94082 6.58591 6.52386 6.58591 8.92241C7.71929 8.92241 8.82631 9.08055 9.95968 8.92241C11.4094 8.76426 11.8838 8.13168 12.0419 6.68201C12.0419 5.54863 12.0419 4.59976 12.0419 3.46639C11.8838 2.33301 11.2512 1.70043 10.1178 1.54228C8.98445 1.38414 7.87743 1.38414 6.58591 1.22599ZM35.7901 32.6442C36.1064 32.328 36.5809 31.8535 37.2398 31.3527C37.3979 31.1946 37.7142 31.0364 37.8724 31.1946C38.0305 31.1946 38.1887 31.669 38.1887 31.8272C38.1887 33.7513 38.1887 35.6754 38.1887 37.5995C38.1887 37.9158 38.1887 38.2321 37.5561 38.2321C37.0817 38.2321 36.7654 38.2321 36.5809 37.5995C36.4227 36.8088 36.2646 35.8335 35.7901 35.0428C34.9994 33.2768 33.7079 32.1435 31.6256 32.328C29.5434 32.328 27.7774 33.1187 26.644 35.2273C26.3278 35.7017 26.1696 36.3607 26.0115 36.9933C25.6952 39.5499 25.537 42.133 26.1696 44.6897C26.8022 47.4045 29.2271 49.0123 32.1001 48.696C34.4986 48.3797 36.4227 46.4556 36.5809 43.7144C36.5809 43.24 36.8972 43.0819 37.3716 43.0819C37.846 43.0819 37.846 43.3982 37.846 43.8726C37.6879 46.5874 35.6056 49.0123 32.8644 49.803C29.9651 50.4356 25.4843 49.6449 23.2439 45.9548C21.7942 43.5563 21.478 40.9733 22.1105 38.2584C23.2439 32.4861 29.0162 30.562 32.7063 31.5109C33.866 31.669 34.8149 32.1698 35.7901 32.6442ZM98.4949 0.56705C98.4949 0.883342 98.4949 1.19963 98.4949 1.70042C97.8623 1.70042 97.3615 1.70042 96.7289 1.70042C96.2545 1.70042 96.0963 1.85857 96.0963 2.33301C96.0963 4.09897 96.0963 6.02307 96.0963 7.78903C96.0963 8.10532 96.0963 8.42161 96.5708 8.42161C98.4949 8.42161 100.419 8.42161 102.343 8.42161C102.343 6.18122 102.343 4.09897 102.343 1.67407C101.552 1.67407 100.735 1.67407 99.9445 1.67407C99.9445 1.19963 99.9445 0.88334 99.9445 0.540691C102.659 0.540691 105.559 0.540691 108.274 0.540691C108.274 0.856982 108.274 1.17327 108.274 1.67407C107.641 1.67407 107.14 1.67407 106.508 1.67407C106.033 1.67407 105.875 1.83221 105.875 2.30665C105.875 6.94559 105.875 11.769 105.875 16.4343C105.875 16.9088 106.033 17.0669 106.508 16.9088C106.982 16.9088 107.483 16.9088 107.799 16.9088C108.274 16.9088 108.274 17.2251 108.274 17.5413C108.274 18.0158 108.115 18.0158 107.799 18.0158C105.242 18.0158 102.659 18.0158 100.103 18.0158H99.9445C99.6282 16.8824 99.7864 16.8824 100.735 16.8824C101.052 16.8824 101.526 16.8824 101.869 16.8824H102.027C102.027 16.7243 102.027 16.5661 102.027 16.408C102.027 14.3257 102.027 12.4016 102.027 10.3194C102.027 9.84493 101.869 9.52864 101.236 9.68678C99.6282 9.68678 98.0204 9.68678 96.2545 9.68678C95.78 9.68678 95.6219 9.84493 95.6219 10.3194C95.6219 12.4016 95.6219 14.3257 95.6219 16.408C95.6219 16.8824 95.78 17.0406 96.2545 17.0406C96.5708 17.0406 96.8871 17.0406 97.0452 17.0406C98.0204 17.0406 98.0204 17.0405 98.0204 18.1739C95.3056 18.1739 92.4063 18.1739 89.6914 18.1739C89.6914 17.8576 89.6914 17.5413 89.6914 17.0406C90.1659 17.0406 90.8248 17.0406 91.4574 17.0406C91.9318 17.0406 92.09 16.8824 92.09 16.408C92.09 11.769 92.09 7.10374 92.09 2.28029C92.09 1.80586 91.9318 1.64771 91.4574 1.64771C90.983 1.64771 90.324 1.64771 89.6914 1.64771C89.6914 1.33142 89.6914 1.01513 89.6914 0.514332C92.8807 0.567047 95.5955 0.56705 98.4949 0.56705ZM19.4221 9.2387C19.5802 6.33936 20.2128 3.94082 22.4795 1.85857C25.8533 -1.19891 33.5497 -0.85626 35.4738 5.70678C36.2646 8.42162 36.2646 11.1628 34.9994 13.7195C33.5497 16.9351 30.176 18.7011 26.4859 18.2003C22.954 17.7258 20.3973 15.301 19.7384 11.7954C19.5802 11.0047 19.4221 10.1876 19.4221 9.2387ZM23.4284 9.08055C23.4284 10.0558 23.4284 11.0047 23.5866 11.9799C23.7447 13.7458 24.2191 15.1955 25.5107 16.4607C26.8022 17.7522 28.8844 17.7522 29.9915 16.4607C30.624 15.67 31.283 14.6947 31.5993 13.7459C32.2319 11.5055 32.2319 9.26506 31.9156 6.9983C31.7574 5.86493 31.5993 4.75791 31.1248 3.78268C30.4923 2.33301 29.3589 1.38413 27.5929 1.38413C25.9851 1.38413 24.8781 2.35937 24.2191 3.78268C23.2703 5.23235 23.4284 7.15645 23.4284 9.08055ZM140.193 1.70042C140.193 1.22599 140.193 1.06784 140.193 0.56705C140.509 0.56705 140.825 0.56705 141.326 0.56705C142.618 0.56705 144.041 0.56705 145.332 0.56705C145.965 0.56705 146.466 0.725196 146.782 1.35778C149.339 4.8897 151.922 8.42161 154.478 11.9535C154.478 11.7954 154.478 11.9535 154.795 12.1117C154.795 11.7954 154.953 11.6372 154.953 11.4791C154.953 8.57976 154.953 5.54864 154.953 2.6493C154.953 2.01672 154.795 1.67407 154.162 1.67407C153.688 1.67407 153.213 1.67407 152.554 1.51592C152.554 1.19963 152.554 0.883338 152.554 0.382544C154.637 0.382544 156.561 0.382544 158.643 0.382544C158.643 0.698835 158.643 1.01513 158.643 1.51592C158.01 1.51592 157.694 1.67407 157.193 1.67407C156.561 1.67407 156.218 1.99036 156.218 2.80745C156.218 7.63089 156.218 12.428 156.218 17.2514C156.218 17.5677 156.06 18.0421 155.744 18.0421C155.427 18.0421 155.111 17.884 154.768 17.7259C154.61 17.7259 154.61 17.5677 154.61 17.4096C151.711 13.4032 148.838 9.39684 145.78 5.39049C145.306 4.59976 144.647 3.94082 144.014 2.99195C144.014 3.30824 144.014 3.62453 144.014 3.78268C144.014 7.78903 144.014 11.7954 144.014 15.8017C144.014 16.5925 144.173 16.9351 144.963 16.9351C145.121 16.9351 145.28 16.9351 145.438 16.9351C146.387 16.9351 146.387 16.9351 146.387 18.0685C144.304 18.0685 142.38 18.0685 140.298 18.0685C139.982 17.0933 139.982 16.9351 141.089 16.9351C142.538 16.777 142.538 16.777 142.538 15.3273C142.538 11.0047 142.538 6.65565 142.538 2.49115C142.538 1.85857 142.38 1.51592 141.748 1.70042C141.168 1.70042 140.667 1.70042 140.193 1.70042ZM66.734 48.3534C67.5247 48.3534 68.0255 48.3534 68.6581 48.3534C69.1325 48.3534 69.1325 48.6697 69.1325 48.986C69.1325 49.3023 69.1325 49.6185 68.6581 49.6185C66.1014 49.6185 63.6765 49.6185 61.1198 49.6185C60.6454 49.6185 60.6454 49.4604 60.6454 48.986C60.6454 48.6697 60.6454 48.3534 61.1198 48.3534C61.7524 48.3534 62.2532 48.3534 63.0439 48.3534C63.0439 48.0371 63.0439 47.7208 63.0439 47.5627C63.0439 43.0819 63.0439 38.5747 63.0439 34.0939C63.0439 33.4613 62.8857 33.1187 62.2532 33.1187C61.9369 33.1187 61.6206 33.1187 61.2779 33.1187C60.8035 33.1187 60.6454 32.9605 60.6454 32.4861C60.6454 32.0117 60.8035 31.8535 61.2779 31.8535C64.3354 31.8535 67.3665 31.8535 70.424 31.8535C72.3481 31.8535 74.2722 32.4861 75.2475 34.2521C77.0134 37.1514 75.4056 40.657 72.0318 41.3159C70.5822 41.6322 68.9744 41.6322 67.551 41.6322C66.9185 41.6322 66.7603 41.7903 66.7603 42.4229C66.734 44.5052 66.734 46.2711 66.734 48.3534ZM66.5758 36.8088C66.5758 37.9421 66.5758 38.891 66.5758 40.0244C66.5758 40.3407 66.5758 40.657 67.0503 40.657C68.0255 40.657 68.9744 40.657 69.9496 40.4988C71.2411 40.3407 71.8737 39.7081 71.8737 38.4166C71.8737 37.2832 71.8737 36.1762 71.8737 35.0428C71.7155 33.7513 71.2411 33.1187 69.9496 32.9605C68.9744 32.8024 68.1836 32.9605 67.2348 32.8024C66.7603 32.8024 66.6022 32.9605 66.6022 33.435C66.5758 34.7265 66.5758 35.8599 66.5758 36.8088ZM94.8048 33.2768C93.8296 33.435 92.7226 33.435 91.9055 33.7513C91.1147 33.9094 90.6139 34.542 90.4558 35.3591C90.2977 35.9917 90.1395 36.8088 90.1395 37.4413C89.9814 38.4166 89.9814 38.4166 88.848 38.2321C88.848 37.7576 88.848 37.4413 88.848 36.9405C89.0061 35.4909 89.1643 34.0412 89.1643 32.6179C89.1643 32.3016 89.1643 31.9853 89.6387 31.9853C94.4622 31.9853 99.1011 31.9853 103.925 31.9853C103.925 31.9853 104.083 31.9853 104.241 32.1435C104.399 34.0676 104.557 36.1498 104.715 38.0739C103.582 38.3902 103.582 38.3902 103.424 37.2832C103.266 36.8087 103.107 36.308 103.107 35.6754C102.791 34.2257 101.816 33.435 100.393 33.435C99.76 33.435 99.2592 33.435 98.6267 33.435C98.6267 38.4166 98.6267 43.3718 98.6267 48.3534C99.76 48.3534 100.867 48.3534 102 48.3534C102 48.8278 102 49.1441 102 49.4868C98.4685 49.4868 95.0947 49.4868 91.5628 49.4868C91.5628 49.1705 91.5628 48.8542 91.5628 48.3534C92.6962 48.3534 93.8032 48.3534 94.9366 48.3534C94.8048 43.3982 94.8048 38.4166 94.8048 33.2768ZM127.857 18.0685C125.142 18.0685 122.559 18.0685 120.003 18.0685C119.686 16.9351 119.845 16.9351 120.793 16.9351C121.11 16.9351 121.426 16.9351 121.927 16.9351C121.452 15.8017 121.136 14.6947 120.793 13.7195C120.793 13.5613 120.477 13.5613 120.319 13.5613C118.711 13.5613 117.103 13.5613 115.496 13.5613C115.337 13.5613 115.021 13.7195 115.021 13.8776C114.705 14.8529 114.389 15.8017 114.046 16.777C114.52 16.777 114.837 16.9351 115.179 16.9351C116.154 16.9351 116.154 17.2514 115.97 18.0685C114.046 18.0685 112.28 18.0685 110.356 18.0685C110.198 16.9351 110.198 16.9351 111.147 16.9351C112.122 16.9351 112.596 16.6188 112.912 15.6436C114.52 10.8202 116.286 6.02307 118.052 1.04148C118.21 0.567047 118.369 0.0662534 119.027 0.0662534C119.66 0.0662534 120.003 0.382544 120.161 1.04148C121.452 4.88969 122.876 8.73791 124.167 12.5861C124.642 13.8776 125.142 15.1428 125.459 16.4343C125.617 16.9088 125.933 17.0669 126.434 17.0669C126.592 17.0669 126.75 17.0669 126.908 17.0669C128.015 16.9351 128.015 16.9351 127.857 18.0685ZM120.477 12.1117C119.686 9.87128 118.869 7.78903 118.237 5.52228H118.079C117.288 7.60453 116.629 9.84493 115.838 11.9272C117.261 12.1117 118.711 12.1117 120.477 12.1117ZM50.7085 48.3534C51.4993 48.3534 52.1582 48.3534 52.7908 48.3534C52.3164 47.22 52.0001 46.113 51.6574 45.1378C51.6574 44.9796 51.3411 44.8215 51.183 44.8215C49.5752 44.8215 47.9673 44.8215 46.3595 44.8215C46.2014 44.8215 45.8851 44.9796 45.727 45.1378C45.4107 46.113 45.0944 46.9037 44.7517 48.0371C45.3843 48.1952 46.0432 48.1952 46.6758 48.3534C46.6758 48.6697 46.6758 48.986 46.6758 49.4868C44.7517 49.4868 42.9858 49.4868 41.0617 49.4868C40.7454 48.3534 40.7454 48.3534 41.8524 48.3534C43.1439 48.3534 43.1439 48.3534 43.6183 47.0619C45.3843 42.2384 46.9921 37.4413 48.7581 32.4598C48.9162 31.9853 49.0744 31.4845 49.8915 31.4845C50.6822 31.4845 50.8667 31.959 51.0248 32.4598C52.7908 37.4413 54.5567 42.5547 56.3227 47.5363C56.4809 48.1689 56.7971 48.327 57.4561 48.327C57.7724 48.327 57.9305 48.327 58.2468 48.327C58.7212 48.327 58.7213 48.6433 58.7213 48.9596C58.7213 49.2759 58.5631 49.5922 58.2468 49.5922C56.0064 49.5922 53.6079 49.5922 51.3411 49.5922C50.3659 49.4868 50.8667 48.8542 50.7085 48.3534ZM46.3595 43.5563C47.9673 43.5563 49.5752 43.5563 51.183 43.5563C50.3922 41.3159 49.5752 39.2337 48.9426 36.9669H48.7844C47.9673 39.2337 47.1766 41.3159 46.3595 43.5563ZM114.046 49.4868C114.046 49.1705 114.046 48.8542 114.046 48.3534C114.678 48.3534 115.337 48.3534 116.128 48.3534C115.654 47.22 115.337 46.2711 114.995 45.1378C114.995 44.9796 114.678 44.8215 114.362 44.8215C112.754 44.8215 111.305 44.8215 109.723 44.8215C109.565 44.8215 109.249 44.9796 109.091 45.2959C108.774 46.0866 108.458 47.0619 108.115 48.1952C108.748 48.3534 109.407 48.3534 110.04 48.5115C110.04 48.8278 110.04 49.1441 110.04 49.6449C108.115 49.6449 106.191 49.6449 104.425 49.6449C104.109 48.6697 104.109 48.5115 105.216 48.5115C106.508 48.5115 106.508 48.5115 106.982 47.22C108.748 42.3966 110.356 37.5995 112.122 32.776C112.28 32.3016 112.438 31.8008 113.255 31.8008C114.046 31.8008 114.23 32.2752 114.389 32.776C116.154 37.7576 117.92 42.871 119.686 47.8526C119.845 48.327 120.161 48.6433 120.662 48.4852C120.82 48.4852 121.136 48.4852 121.294 48.4852C121.769 48.4852 122.085 48.4852 122.085 49.1177C122.085 49.7503 121.769 49.7503 121.294 49.7503C119.054 49.7503 116.813 49.7503 114.705 49.7503C114.547 49.4868 114.389 49.4868 114.046 49.4868ZM112.306 37.125H112.148C111.357 39.2073 110.698 41.4477 109.908 43.5299C111.516 43.5299 113.123 43.5299 114.731 43.5299C113.73 41.3159 112.939 39.2336 112.306 37.125ZM61.9105 9.2387C63.3602 6.68201 64.6254 4.41526 66.075 1.85857C65.4424 1.70043 64.9416 1.70043 64.3091 1.54228C64.3091 1.22599 64.3091 0.909697 64.3091 0.408903C66.2332 0.408903 67.9991 0.408903 69.9232 0.408903C69.9232 0.725194 69.9232 1.04148 69.9232 1.38413L69.7651 1.54228C68.1573 1.38414 67.3665 2.17486 66.7076 3.46639C65.5742 5.86493 64.1509 8.10532 62.8594 10.3721C62.7013 10.6884 62.5431 11.0047 62.5431 11.3473C62.5431 12.9551 62.5431 14.5629 62.5431 16.1707C62.5431 16.6452 62.7012 16.8033 63.1757 16.8033C63.492 16.8033 63.8083 16.8033 63.9664 16.8033C64.9416 16.8033 64.9416 16.8033 64.7571 17.9367C62.0423 17.9367 59.3011 17.9367 56.5863 17.9367C56.5863 17.6204 56.5863 17.3041 56.5863 16.8033C57.2189 16.8033 57.8778 16.8033 58.3522 16.8033C58.6685 16.8033 58.9848 16.6452 58.9848 16.3289C58.9848 14.7211 58.9848 12.9551 58.9848 11.3473C58.9848 11.031 58.8267 10.8729 58.6685 10.5566C57.0607 7.65724 55.4529 4.94241 53.8451 2.22758C53.5288 1.91128 53.0544 1.75314 52.7117 1.75314C52.2373 1.595 51.7365 1.75314 51.262 1.75314C51.262 1.43685 51.262 1.12056 51.262 0.619765C53.9769 0.619765 56.5599 0.619765 59.2748 0.619765C59.2748 0.936056 59.2748 1.25235 59.2748 1.75314C58.6422 1.75314 58.1414 1.75314 57.3507 1.91129C59.0375 4.25711 60.3291 6.68201 61.9105 9.2387ZM87.5828 3.62453C87.5828 4.59976 87.5828 5.54864 87.5828 6.33936C87.5828 6.8138 87.5828 7.13009 86.9502 7.13009C86.4758 7.13009 86.1595 6.97195 86.1595 6.49751C86.0014 4.8897 85.3688 3.28188 83.9191 2.33301C81.5206 0.408904 77.5142 1.70042 76.3808 4.73155C76.0646 6.02307 75.9064 7.44638 75.9064 8.73791C75.9064 10.3457 76.0646 12.1117 76.539 13.7195C77.1716 16.118 79.5965 17.4096 82.1532 17.2514C84.5517 16.9351 86.3177 15.011 86.4758 12.6125C86.4758 12.138 86.6339 11.8217 87.2665 11.8217C87.8991 11.8217 87.741 12.2962 87.741 12.6125C87.5828 15.1692 85.6587 17.4359 82.9175 18.2266C79.2275 19.2019 74.9048 17.4359 72.9807 14.0621C71.0566 10.5302 71.0566 3.96718 76.3545 1.22599C79.0693 -0.223678 82.1268 -0.539972 84.868 1.38413C85.0261 1.54228 85.3424 1.38413 85.5006 1.38413C85.8169 1.06784 86.1332 0.751552 86.634 0.408903C86.7921 0.408903 87.1084 0.0926102 87.2665 0.250756C87.4247 0.250756 87.5828 0.725195 87.5828 0.883341C87.5828 1.85857 87.5828 2.6493 87.5828 3.62453ZM137.478 42.5811C137.161 44.8215 137.003 46.9037 136.687 49.1705C136.687 49.3286 136.213 49.4868 135.896 49.4868C132.681 49.4868 129.491 49.4868 126.276 49.4868C125.801 49.4868 125.301 49.4868 124.826 49.4868C123.851 49.4868 123.851 49.4868 124.035 48.3534C124.826 48.3534 125.485 48.3534 126.276 48.3534C126.276 48.0371 126.276 47.7208 126.276 47.5627C126.276 43.0819 126.276 38.4166 126.276 33.9358C126.276 33.3032 126.118 32.9605 125.485 33.145C125.327 33.145 125.011 33.145 124.852 33.145C123.719 33.145 123.719 33.145 124.062 32.0117C126.961 32.0117 129.992 32.0117 132.892 32.0117C133.208 33.145 133.05 33.145 132.101 33.145C131.468 33.145 130.809 33.145 130.019 33.145C130.019 38.2848 130.019 43.24 130.019 48.2216C132.918 48.8542 135.158 47.589 135.791 44.8478C135.949 44.3734 135.949 43.8726 136.107 43.3982C136.344 42.4229 136.344 42.2648 137.478 42.5811ZM51.8156 11.1628C51.4993 13.4032 51.3411 15.8017 51.0248 18.0685C46.7022 18.0685 42.5113 18.0685 38.3468 18.0685C38.3468 17.7522 38.3468 17.4359 38.3468 16.9351C38.9794 16.9351 39.4802 16.9351 40.1128 16.9351C40.5872 16.9351 40.7454 16.777 40.7454 16.3025C40.7454 11.4791 40.7454 6.68201 40.7454 2.01672C40.7454 1.85857 40.7454 1.85857 40.7454 1.70042C39.9546 1.70042 39.2957 1.70042 38.505 1.70042C38.505 1.22599 38.505 0.909699 38.505 0.56705C41.5625 0.56705 44.5936 0.56705 47.6511 0.56705C47.6511 0.883342 47.6511 1.19963 47.6511 1.70042C46.6758 1.70042 45.727 1.70042 44.5936 1.70042C44.5936 2.01672 44.5936 2.33301 44.5936 2.49115C44.5936 6.97194 44.5936 11.6372 44.5936 16.118C44.5936 16.7506 44.7517 16.9088 45.3843 16.9088C48.5999 16.9088 50.0232 15.6172 50.6822 12.428C50.6822 12.2698 50.8403 12.1117 50.8403 11.9535C50.524 11.0047 51.0248 11.0047 51.8156 11.1628ZM78.1204 33.1187C78.1204 32.6443 78.1204 32.328 78.1204 31.9853C81.0198 31.9853 83.8928 31.9853 86.7921 31.9853C86.7921 32.3016 86.7921 32.6179 86.7921 33.1187C86.1595 33.1187 85.5006 33.1187 84.868 33.1187C84.5517 33.1187 84.2354 33.2768 84.2354 33.5931C84.2354 38.4166 84.2354 43.2137 84.2354 48.0371C84.2354 48.1952 84.2354 48.1952 84.3936 48.3534C85.1843 48.3534 86.0014 48.3534 86.7921 48.3534C86.7921 48.8278 86.7921 49.1441 86.7921 49.4868C83.8928 49.4868 81.0198 49.4868 78.1204 49.4868C78.1204 49.1705 78.1204 48.8542 78.1204 48.3534C78.753 48.3534 79.412 48.3534 80.0445 48.3534C80.519 48.3534 80.519 48.1952 80.519 47.8789C80.519 43.24 80.519 38.4166 80.519 33.7513C80.519 33.2768 80.3608 33.1187 79.8864 33.1187C79.412 33.1187 78.7794 33.1187 78.1204 33.1187ZM129.781 1.70042C129.781 1.22599 129.781 0.909699 129.781 0.56705C130.098 0.56705 130.414 0.56705 130.572 0.56705C132.812 0.56705 135.211 0.56705 137.478 0.56705C138.427 0.408905 138.427 0.408901 138.427 1.70042C138.11 1.70042 137.636 1.70042 137.135 1.70042C136.819 1.70042 136.344 1.70042 135.844 1.70042C135.844 2.01672 135.844 2.33301 135.844 2.49115C135.844 6.97194 135.844 11.4791 135.844 16.118C135.844 16.9088 136.002 17.0933 136.819 16.9088C136.977 16.9088 137.293 16.9088 137.451 16.9088C138.4 16.9088 138.4 16.9088 138.4 18.0421C135.501 18.0421 132.628 18.0421 129.729 18.0421C129.57 16.9088 129.57 16.9088 130.704 16.9088C132.312 16.9088 132.312 16.9088 132.312 15.3009C132.312 10.9783 132.312 6.6293 132.312 2.4648C132.312 1.83221 132.154 1.48957 131.521 1.67407C130.888 1.70043 130.256 1.70042 129.781 1.70042Z" fill="white"/>
</svg>
