<svg width="200" height="40" viewBox="0 0 200 40" fill="none" xmlns="http://www.w3.org/2000/svg">
<path d="M162.326 9.28769C159.135 9.28769 156.286 10.5982 154.234 12.7635L139.42 26.7236C138.052 27.9771 136.343 28.6609 134.576 28.6039C134.462 28.6039 134.348 28.6039 134.234 28.6039C130.303 28.319 127.112 25.0712 126.827 21.1395C126.656 18.8603 127.454 16.6951 128.992 15.0427C130.531 13.3903 132.639 12.4786 134.918 12.4786C136.798 12.4786 138.679 13.1623 140.103 14.3589C140.787 14.9287 141.813 14.8717 142.383 14.188C142.952 13.5042 142.895 12.4786 142.212 11.9088C140.16 10.1994 137.596 9.23071 134.918 9.23071C131.784 9.23071 128.821 10.5413 126.656 12.8205C124.491 15.1566 123.408 18.1196 123.636 21.3105C124.035 26.8375 128.479 31.339 134.006 31.7378C134.177 31.7378 134.348 31.7378 134.462 31.7378C134.576 31.7378 134.69 31.7378 134.804 31.7378C137.254 31.7378 139.761 30.7122 141.642 28.9458L151.157 19.9999C151.157 20.1709 151.157 20.2848 151.157 20.4558C151.157 26.6666 156.229 31.7378 162.439 31.7378C164.434 31.7378 166.428 31.225 168.137 30.1994C168.878 29.7435 169.163 28.7749 168.707 27.9772C168.251 27.2364 167.283 26.9515 166.485 27.4073C165.232 28.1481 163.864 28.49 162.383 28.49C157.938 28.49 154.291 24.9002 154.291 20.3988C154.291 18.2905 155.146 16.3532 156.457 14.8717L156.685 14.6438C156.741 14.5868 156.741 14.5868 156.798 14.5299C158.223 13.1623 160.217 12.3076 162.326 12.3076C166.77 12.3076 170.417 15.8974 170.417 20.3988V30.0854C170.417 30.9971 171.157 31.6809 172.012 31.6809C172.924 31.6809 173.608 30.9401 173.608 30.0854V20.3988C173.608 14.3589 168.536 9.28769 162.326 9.28769Z" fill="white"/>
<path d="M188.536 9.28784C185.858 9.28784 183.408 10.1995 181.414 11.8519V11.0542C181.414 10.1425 180.673 9.45878 179.818 9.45878C178.907 9.45878 178.223 10.1995 178.223 11.0542V38.4046C178.223 39.3163 178.964 40.0001 179.818 40.0001C180.73 40.0001 181.414 39.2593 181.414 38.4046V29.2878C183.408 30.9403 185.915 31.8519 188.536 31.8519C194.747 31.8519 199.818 26.7807 199.818 20.5699C199.761 14.3591 194.747 9.28784 188.536 9.28784ZM188.536 28.6041C186.428 28.6041 184.434 27.8064 182.952 26.3819C182.325 25.7551 181.813 25.0713 181.414 24.3306V16.6952C181.528 16.4673 181.813 16.0685 182.098 15.6696C183.636 13.6183 185.972 12.4217 188.536 12.4217C192.981 12.4217 196.627 16.0115 196.627 20.5129C196.57 25.0143 192.981 28.6041 188.536 28.6041Z" fill="white"/>
<path d="M17.3683 31.7379H10.9866C5.11762 31.7379 0.331299 26.9516 0.331299 21.0826V1.59544C0.331299 0.683761 1.07204 0 1.92674 0C2.78144 0 3.52218 0.740741 3.52218 1.59544V21.0826C3.52218 25.1852 6.88401 28.547 10.9866 28.547H17.3114C18.223 28.547 18.9068 29.2877 18.9068 30.1425C18.9638 30.9972 18.223 31.7379 17.3683 31.7379Z" fill="white"/>
<path d="M30.3598 31.7379C24.149 31.7379 19.0208 26.6667 19.0208 20.3988C19.0208 14.131 24.092 9.05981 30.3598 9.05981C33.3797 9.05981 36.2287 10.2564 38.337 12.3647C38.9638 12.9914 38.9638 14.0171 38.337 14.6439L26.1433 26.8376C26.0293 26.9516 25.9153 27.0085 25.8014 27.1225C27.1119 27.9772 28.6504 28.49 30.3598 28.49C32.1262 28.49 33.7786 27.9202 35.1461 26.8946C35.8868 26.3818 36.8555 26.4957 37.3683 27.2365C37.8811 27.9772 37.7672 28.9459 37.0264 29.4587C35.0891 30.9402 32.7529 31.7379 30.3598 31.7379ZM30.3598 12.3077C25.9153 12.3077 22.2686 15.9544 22.2686 20.3988C22.2686 22.0513 22.7814 23.6467 23.6361 24.9573C23.6931 24.8433 23.8071 24.7293 23.921 24.6154L34.8612 13.6752C33.4937 12.7635 31.9552 12.3077 30.3598 12.3077Z" fill="white"/>
<path d="M61.0719 9.40171C58.7927 9.40171 56.6844 10.4843 55.3739 12.1367C54.0064 10.4273 51.9551 9.34473 49.6189 9.34473C47.8525 9.34473 46.2001 9.97151 44.9465 11.0541C44.6616 10.8262 44.3197 10.6553 43.9209 10.6553C43.0092 10.6553 42.3254 11.396 42.3254 12.2507V30.1424C42.3254 31.0541 43.0662 31.7379 43.9209 31.7379C44.7756 31.7379 45.5163 30.9971 45.5163 30.1424V16.6952C45.5163 14.416 47.3967 12.5926 49.6189 12.5926C51.8981 12.5926 53.7214 14.4729 53.7214 16.6952V30.0855C53.7214 30.9971 54.4622 31.6809 55.3169 31.6809C56.2286 31.6809 56.9123 30.9402 56.9123 30.0855V16.7521C56.9123 14.4729 58.7927 12.6496 61.0149 12.6496C63.2941 12.6496 65.1175 14.5299 65.1175 16.7521V30.1424C65.1175 31.0541 65.8582 31.7379 66.7129 31.7379C67.6246 31.7379 68.3083 30.9971 68.3083 30.1424V16.7521C68.4223 12.7065 65.1175 9.40171 61.0719 9.40171Z" fill="white"/>
<path d="M82.0408 9.40173C79.7616 9.40173 77.6533 10.2564 76.0579 11.6809C75.83 11.1111 75.2602 10.6553 74.5764 10.6553C73.6647 10.6553 72.981 11.396 72.981 12.2507V30.1425C72.981 31.0542 73.7217 31.7379 74.5764 31.7379C75.4881 31.7379 76.1718 30.9972 76.1718 30.1425V18.4616C76.1718 18.4616 76.1718 18.4616 76.1718 18.4046C76.1718 15.1567 78.7929 12.5356 82.0408 12.5356C85.2886 12.5356 87.9097 15.1567 87.9097 18.4046V30.1425C87.9097 31.0542 88.6505 31.7379 89.5052 31.7379C90.4168 31.7379 91.1006 30.9972 91.1006 30.1425V18.4616C91.1006 13.4473 87.055 9.40173 82.0408 9.40173Z" fill="white"/>
<path d="M114.348 31.7379C114.291 31.7379 114.291 31.7379 114.291 31.7379H106.2C105.289 31.7379 104.605 30.9971 104.605 30.1424C104.605 29.2308 105.346 28.547 106.2 28.547H114.348C114.405 28.547 115.887 28.547 116.799 27.6353C117.311 27.1225 117.596 26.3248 117.596 25.2991C117.596 24.2735 117.311 23.4758 116.799 22.963C115.887 22.0513 114.405 22.0513 114.405 22.0513H109.904C109.562 22.0513 106.998 21.9943 105.175 20.1709C104.092 19.0883 103.522 17.6068 103.522 15.8405C103.522 11.1111 107.682 9.51567 109.847 9.34473C109.904 9.34473 109.904 9.34473 109.961 9.34473H117.824C118.736 9.34473 119.42 10.0855 119.42 10.9402C119.42 11.7949 118.679 12.5356 117.824 12.5356H110.075C109.448 12.5926 106.77 13.0484 106.77 15.8405C106.77 16.7521 106.998 17.4359 107.511 17.8917C108.423 18.8034 109.961 18.8604 110.018 18.8604H114.519C114.747 18.8604 117.311 18.8604 119.192 20.6838C120.388 21.8234 120.958 23.3618 120.958 25.2991C120.958 27.2365 120.388 28.7749 119.192 29.9145C117.254 31.6239 114.861 31.7379 114.348 31.7379Z" fill="white"/>
<path d="M97.2541 31.7378C96.3425 31.7378 95.6587 30.9971 95.6587 30.1424V11.339C95.6587 10.4273 96.3994 9.74353 97.2541 9.74353C98.1088 9.74353 98.8496 10.4843 98.8496 11.339V30.1424C98.8496 30.9971 98.1658 31.7378 97.2541 31.7378Z" fill="white"/>
<path d="M95.146 5.75499C94.9181 5.75499 94.6332 5.64103 94.4622 5.47009C94.0634 5.07123 94.0634 4.50143 94.4622 4.10257L96.6275 1.93733C97.0263 1.53847 97.5961 1.53847 97.995 1.93733L100.103 4.04559C100.502 4.44445 100.502 5.01425 100.103 5.41311C99.7044 5.81197 99.1346 5.81197 98.7357 5.41311L97.3112 3.98861L95.8297 5.47009C95.6588 5.69801 95.3739 5.75499 95.146 5.75499Z" fill="white"/>
</svg>
