<svg width="311" height="40" viewBox="0 0 311 40" fill="none" xmlns="http://www.w3.org/2000/svg">
<path d="M50.5749 10.2668V21.7679H39.2262V11.7526C39.2265 11.558 39.1884 11.3654 39.1141 11.1856C39.0399 11.0058 38.9308 10.8424 38.7932 10.7049C38.6557 10.5673 38.4924 10.4583 38.3126 10.384C38.1328 10.3098 37.9402 10.2717 37.7456 10.272H33.918V37.6768C33.9176 37.8714 33.9557 38.064 34.03 38.2438C34.1043 38.4236 34.2133 38.5869 34.3509 38.7244C34.4884 38.862 34.6517 38.9711 34.8315 39.0453C35.0113 39.1196 35.204 39.1577 35.3985 39.1574H39.2262V26.4105H50.5749V37.6794C50.5746 37.8739 50.6127 38.0666 50.687 38.2464C50.7612 38.4262 50.8702 38.5895 51.0078 38.727C51.1453 38.8646 51.3087 38.9737 51.4885 39.0479C51.6683 39.1222 51.8609 39.1603 52.0555 39.1599H55.883V11.7526C55.8834 11.558 55.8454 11.3654 55.7711 11.1856C55.6968 11.0058 55.5878 10.8424 55.4502 10.7049C55.3127 10.5673 55.1494 10.4583 54.9696 10.384C54.7898 10.3098 54.5971 10.2717 54.4026 10.272L50.5749 10.2668Z" fill="white"/>
<path d="M72.8421 17.0784V30.7769C72.8479 31.3894 72.6929 31.9927 72.3929 32.5267C72.0928 33.0607 71.6581 33.5068 71.132 33.8204C70.5363 34.207 69.8476 34.4263 69.1381 34.4554C68.4285 34.4845 67.7242 34.3224 67.0988 33.986C66.4734 33.6495 65.9498 33.1512 65.5831 32.5431C65.2163 31.935 65.0198 31.2394 65.014 30.5293V18.5692C65.014 18.1765 64.8581 17.8 64.5804 17.5223C64.3028 17.2447 63.9262 17.0887 63.5335 17.0887H59.6904V31.0168C59.6966 33.1759 60.5569 35.2448 62.0836 36.7715C63.6103 38.2982 65.6793 39.1586 67.8384 39.1647H70.0152C72.1743 39.1586 74.2431 38.2982 75.7698 36.7715C77.2965 35.2448 78.157 33.1759 78.1632 31.0168V18.5692C78.1632 18.1765 78.0071 17.8 77.7295 17.5223C77.4518 17.2447 77.0752 17.0887 76.6826 17.0887H72.8395L72.8421 17.0784Z" fill="white"/>
<path d="M131.58 39.1499H135.407V19.7666C135.407 19.374 135.251 18.9974 134.974 18.7198C134.696 18.4421 134.32 18.2861 133.927 18.2861H130.089V37.6693C130.089 37.8647 130.127 38.0583 130.202 38.2388C130.277 38.4192 130.387 38.583 130.525 38.7207C130.664 38.8584 130.829 38.9672 131.01 39.0408C131.191 39.1145 131.384 39.1516 131.58 39.1499Z" fill="white"/>
<path d="M132.754 16.1882C134.39 16.1882 135.717 14.8613 135.717 13.2246C135.717 11.5878 134.39 10.261 132.754 10.261C131.117 10.261 129.79 11.5878 129.79 13.2246C129.79 14.8613 131.117 16.1882 132.754 16.1882Z" fill="white"/>
<path d="M92.0553 17.0631C90.7586 17.0031 89.4631 17.2046 88.2459 17.6556C87.0287 18.1066 85.9145 18.798 84.97 19.6884C84.0254 20.5788 83.2697 21.6501 82.7477 22.8386C82.2257 24.0271 81.9482 25.3084 81.9316 26.6064V29.6164C81.9478 30.9138 82.2251 32.1947 82.7471 33.3825C83.2692 34.5704 84.0253 35.6409 84.9701 36.5301C85.915 37.4194 87.0293 38.1092 88.2466 38.5583C89.4639 39.0074 90.7593 39.2067 92.0553 39.1442C93.3513 39.2067 94.6466 39.0074 95.8639 38.5583C97.0812 38.1092 98.1955 37.4194 99.1404 36.5301C100.085 35.6409 100.841 34.5704 101.363 33.3825C101.885 32.1947 102.163 30.9138 102.179 29.6164V26.6064C102.162 25.3084 101.885 24.0271 101.363 22.8386C100.841 21.6501 100.085 20.5788 99.1404 19.6884C98.1958 18.798 97.0819 18.1066 95.8647 17.6556C94.6475 17.2046 93.352 17.0031 92.0553 17.0631ZM96.8423 29.9853C96.7382 31.1831 96.1888 32.2984 95.3025 33.111C94.4162 33.9235 93.2576 34.3743 92.0553 34.3743C90.8529 34.3743 89.6941 33.9235 88.8079 33.111C87.9216 32.2984 87.3722 31.1831 87.2681 29.9853V26.2273C87.3722 25.0294 87.9216 23.9141 88.8079 23.1015C89.6941 22.289 90.8529 21.8382 92.0553 21.8382C93.2576 21.8382 94.4162 22.289 95.3025 23.1015C96.1888 23.9141 96.7382 25.0294 96.8423 26.2273V29.9853Z" fill="white"/>
<path d="M116.15 17.0631C114.483 17.0549 112.835 17.429 111.335 18.1567V11.7085C111.335 11.3159 111.179 10.9393 110.901 10.6617C110.623 10.384 110.247 10.228 109.854 10.228H106.026V29.6113C106.043 30.9087 106.32 32.1896 106.842 33.3774C107.364 34.5653 108.12 35.6358 109.065 36.525C110.01 37.4143 111.124 38.104 112.342 38.5531C113.559 39.0023 114.854 39.2016 116.15 39.1392C117.446 39.2016 118.741 39.0023 119.959 38.5531C121.176 38.104 122.29 37.4143 123.235 36.525C124.18 35.6358 124.936 34.5653 125.458 33.3774C125.98 32.1896 126.258 30.9087 126.274 29.6113V26.6012C126.256 25.3037 125.978 24.0229 125.456 22.8351C124.934 21.6472 124.178 20.5765 123.233 19.6866C122.289 18.7967 121.175 18.1059 119.958 17.6552C118.741 17.2046 117.446 17.0031 116.15 17.0631ZM120.937 29.9853C120.833 31.1831 120.284 32.2984 119.397 33.111C118.511 33.9235 117.353 34.3743 116.15 34.3743C114.948 34.3743 113.789 33.9235 112.903 33.111C112.016 32.2984 111.467 31.1831 111.363 29.9853V26.2273C111.467 25.0294 112.016 23.9141 112.903 23.1016C113.789 22.289 114.948 21.8382 116.15 21.8382C117.353 21.8382 118.511 22.289 119.397 23.1016C120.284 23.9141 120.833 25.0294 120.937 26.2273V29.9853Z" fill="white"/>
<path d="M17.9053 12.3114C17.9578 10.0354 17.5477 7.7723 16.7001 5.65931C15.8524 3.54632 14.5847 1.62731 12.9737 0.0185603C12.9737 0.0185603 12.8112 -0.0742703 12.8215 0.155285C12.6436 11.2462 6.97176 14.251 3.85084 18.3005C2.46201 20.0108 1.50982 22.0331 1.07628 24.1932C0.642737 26.3533 0.740834 28.5864 1.36216 30.7001C1.9835 32.8138 3.10944 34.7449 4.64293 36.3268C6.17642 37.9087 8.07148 39.094 10.1649 39.7807C13.9796 40.8408 9.28282 37.9056 8.67927 31.7102C7.94675 24.2303 17.9053 18.512 17.9053 12.3114Z" fill="white"/>
<path d="M21.183 16.0508C21.1725 16.0406 21.16 16.0328 21.1461 16.0283C21.1323 16.0237 21.1176 16.0223 21.1031 16.0243C21.0887 16.0263 21.0749 16.0316 21.0628 16.0398C21.0507 16.0479 21.0407 16.0588 21.0334 16.0714C20.3745 18.6393 19.2369 21.0597 17.6803 23.2057C11.5416 32.522 15.0392 37.01 17.0071 39.4216C18.1498 40.8196 17.0071 39.4215 19.8624 37.99C21.5998 36.9359 23.063 35.4854 24.1322 33.7572C25.2014 32.029 25.8462 30.0723 26.014 28.047C26.199 25.8093 25.8585 23.5593 25.0198 21.4765C24.181 19.3937 22.8671 17.5357 21.183 16.0508Z" fill="white"/>
<path d="M191.322 23.1701C190.962 22.029 190.369 20.975 189.581 20.0749C188.791 19.1847 187.815 18.4801 186.721 18.0115C185.476 17.4917 184.136 17.237 182.787 17.2635C181.234 17.2299 179.691 17.5335 178.266 18.1534C177.037 18.7094 175.945 19.5303 175.07 20.5573C174.208 21.5967 173.569 22.802 173.192 24.0986C172.784 25.4966 172.581 26.9469 172.591 28.4034C172.578 29.865 172.788 31.3202 173.213 32.7185C173.615 34.0134 174.303 35.2011 175.228 36.1929C176.202 37.2102 177.397 37.9903 178.72 38.4729C180.48 39.0842 182.356 39.287 184.206 39.0661C185.377 39.0157 186.522 38.7068 187.559 38.1614C188.597 37.616 189.5 36.8477 190.205 35.9117C192.011 33.4614 191.495 33.0383 191.495 33.0383H187.518C186.346 34.1563 184.812 34.8163 183.195 34.898C182.51 34.9892 181.812 34.9255 181.155 34.7117C180.497 34.4979 179.896 34.1394 179.396 33.6625C178.393 32.6003 177.839 31.1924 177.848 29.7318H191.41C191.786 29.7318 191.879 29.4738 191.895 29.1179C192.067 27.1169 191.873 25.1014 191.322 23.1701ZM186.937 25.8087H177.941C178.085 24.6375 178.563 23.5324 179.318 22.6258C180.019 21.9939 180.885 21.5751 181.815 21.4189C182.746 21.2626 183.701 21.3753 184.57 21.7437C185.078 21.9916 185.524 22.3504 185.875 22.7935C186.236 23.2646 186.505 23.7991 186.669 24.3694C186.811 24.8378 186.899 25.3206 186.932 25.8087H186.937Z" fill="white"/>
<path d="M290.863 23.1701C290.504 22.0295 289.912 20.9756 289.125 20.075C288.335 19.1855 287.358 18.481 286.265 18.0116C285.02 17.492 283.68 17.2373 282.331 17.2636C280.777 17.2295 279.235 17.5331 277.81 18.1534C276.579 18.7089 275.487 19.5299 274.612 20.5573C273.75 21.5965 273.112 22.8019 272.736 24.0986C272.328 25.4967 272.125 26.9469 272.135 28.4034C272.122 29.8653 272.332 31.3205 272.76 32.7186C273.16 34.0133 273.848 35.2009 274.771 36.1929C275.746 37.2104 276.942 37.9904 278.266 38.473C280.026 39.0844 281.902 39.2872 283.752 39.0662C284.923 39.0154 286.068 38.7063 287.105 38.1609C288.143 37.6155 289.046 36.8475 289.752 35.9117C291.557 33.4614 291.042 33.0384 291.042 33.0384H287.064C285.893 34.1562 284.359 34.8161 282.741 34.8981C282.056 34.9879 281.359 34.9236 280.702 34.7099C280.045 34.4961 279.443 34.1383 278.942 33.6626C277.939 32.6003 277.385 31.1924 277.395 29.7318H290.959C291.335 29.7318 291.428 29.4739 291.444 29.1179C291.614 27.1165 291.417 25.1008 290.863 23.1701ZM286.479 25.8087H277.487C277.632 24.6373 278.111 23.5323 278.867 22.6259C279.568 21.994 280.434 21.5752 281.364 21.4189C282.295 21.2626 283.25 21.3754 284.119 21.7438C284.626 21.9919 285.071 22.3506 285.421 22.7936C285.781 23.2651 286.051 23.7995 286.216 24.3695C286.35 24.8387 286.432 25.3214 286.461 25.8087H286.479Z" fill="white"/>
<path d="M247.961 17.05V30.7459C247.967 31.3595 247.812 31.9639 247.511 32.4988C247.211 33.0338 246.775 33.4806 246.248 33.7946C245.652 34.1812 244.963 34.4003 244.253 34.4291C243.543 34.4579 242.838 34.2954 242.212 33.9584C241.586 33.6214 241.063 33.1224 240.696 32.5137C240.329 31.905 240.133 31.2089 240.128 30.4983V18.5305C240.128 18.1378 239.972 17.7612 239.694 17.4836C239.416 17.2059 239.04 17.05 238.647 17.05H234.799V30.978C234.805 33.1387 235.666 35.2092 237.193 36.7373C238.721 38.2654 240.791 39.1269 242.952 39.1337H245.131C247.292 39.1276 249.363 38.2663 250.892 36.7382C252.42 35.21 253.281 33.1392 253.287 30.978V18.5228C253.287 18.1301 253.131 17.7535 252.853 17.4759C252.576 17.1982 252.199 17.0422 251.807 17.0422L247.961 17.05Z" fill="white"/>
<path d="M308.901 28.8162C307.535 27.5402 305.892 26.5989 304.101 26.0667C302.974 25.7039 301.904 25.1829 300.923 24.5192C300.749 24.3596 300.614 24.1629 300.527 23.9436C300.44 23.7243 300.403 23.4881 300.42 23.2528C300.417 22.9919 300.483 22.7348 300.613 22.5081C300.742 22.2815 300.929 22.0933 301.155 21.9631C301.851 21.5337 302.66 21.3258 303.477 21.3673C305.116 21.341 306.728 21.7888 308.119 22.6569L308.849 23.1212H308.921C309.022 23.1212 309.259 23.0541 309.306 22.6311V18.8886C309.284 18.7201 309.219 18.5601 309.117 18.4244C309.015 18.2887 308.879 18.1821 308.723 18.1148C307.09 17.4242 305.337 17.0648 303.564 17.0573C301.53 17.0335 299.535 17.626 297.843 18.7571C297.043 19.2742 296.388 19.9863 295.939 20.8264C295.49 21.6666 295.262 22.6072 295.277 23.5597C295.246 24.847 295.649 26.1072 296.422 27.1371C297.706 28.4633 299.303 29.446 301.065 29.995C302.28 30.3752 303.436 30.922 304.501 31.6199C304.68 31.7711 304.828 31.9568 304.934 32.166C305.041 32.3752 305.105 32.6036 305.121 32.8378C305.138 33.0721 305.108 33.3073 305.032 33.5296C304.957 33.7519 304.837 33.9568 304.681 34.1321C303.834 34.7239 302.795 34.9744 301.772 34.8337C299.636 34.7628 297.556 34.1341 295.739 33.0101L295.587 32.9508L295.478 33.0127C295.318 33.1056 295.298 33.3223 295.298 33.5028V37.4362V37.5007C295.325 37.5914 295.372 37.6753 295.434 37.7469C295.496 37.8184 295.573 37.8761 295.659 37.9159C297.455 38.7729 299.426 39.1977 301.416 39.1565C303.626 39.2463 305.81 38.6547 307.673 37.4619C308.484 36.9367 309.147 36.2124 309.599 35.3581C310.05 34.5038 310.275 33.548 310.252 32.5819C310.293 31.2011 309.81 29.8559 308.901 28.8162Z" fill="white"/>
<path d="M230.935 39.1411V35.788C230.935 35.5997 230.898 35.4132 230.826 35.2392C230.754 35.0652 230.649 34.9071 230.515 34.7741C230.382 34.6411 230.224 34.5357 230.05 34.464C229.876 34.3924 229.689 34.3558 229.501 34.3565H226.841C224.675 34.3565 223.432 33.2732 223.432 30.4644V22.007H230.935V18.6539C230.935 18.4658 230.898 18.2795 230.826 18.1057C230.755 17.9319 230.649 17.7739 230.516 17.6409C230.383 17.5079 230.225 17.4025 230.051 17.3307C229.878 17.2589 229.691 17.2221 229.503 17.2224H223.432V11.6615C223.431 11.282 223.28 10.9183 223.012 10.65C222.743 10.3817 222.38 10.2307 222 10.23H218.095V31.1118C217.963 32.2046 218.083 33.313 218.445 34.3525C218.807 35.392 219.401 36.3351 220.184 37.1095C220.966 37.884 221.915 38.4694 222.958 38.8211C224.001 39.1727 225.11 39.2813 226.202 39.1385H230.935V39.1411Z" fill="white"/>
<path d="M264.704 17.246C263.638 17.1958 262.574 17.3768 261.584 17.7763C260.594 18.1759 259.703 18.7847 258.97 19.561C258.238 20.3373 257.682 21.2628 257.34 22.274C256.999 23.2852 256.88 24.3583 256.992 25.4197V37.6222C256.992 38.0251 257.152 38.4116 257.437 38.6965C257.722 38.9814 258.108 39.1414 258.511 39.1414H262.223V26.3508C262.119 25.62 262.204 24.8747 262.472 24.1867C262.739 23.4986 263.179 22.891 263.75 22.4225C264.524 21.8061 266.071 21.378 269.042 22.5154V18.9895C269.048 18.3215 267.926 17.246 264.704 17.246Z" fill="white"/>
<path d="M205.62 17.4627C203.618 17.4627 201.395 17.9425 201.026 18.9742V18.4867C201.026 18.3113 200.992 18.1375 200.925 17.9754C200.857 17.8133 200.759 17.6661 200.635 17.542C200.511 17.4179 200.364 17.3195 200.202 17.2523C200.039 17.1852 199.866 17.1506 199.69 17.1506H195.648V37.8055C195.648 38.1598 195.789 38.4997 196.04 38.7503C196.29 39.0008 196.63 39.1415 196.985 39.1415H200.99V27.1247C200.99 23.3925 203.149 22.1364 204.8 22.1364C207.121 22.1364 209.001 23.5111 209.001 26.9674V37.8003C209.001 37.9759 209.035 38.1497 209.102 38.312C209.169 38.4742 209.268 38.6217 209.392 38.7458C209.516 38.87 209.664 38.9683 209.826 39.0354C209.988 39.1024 210.162 39.1368 210.337 39.1364H214.302V26.7249C214.299 20.7229 211.08 17.4627 205.62 17.4627Z" fill="white"/>
<path d="M165.93 10.2354L161.636 23.7687C160.545 27.1863 159.515 30.4491 158.883 32.7962C158.239 30.1602 157.191 26.7401 156.25 23.6708L152.603 11.6952C152.474 11.2726 152.212 10.9027 151.857 10.6399C151.502 10.3771 151.072 10.2354 150.63 10.2354H146.028L155.528 39.1413H162.033L171.834 10.2354H165.93Z" fill="white"/>
</svg>
