<svg width="283" height="24" viewBox="0 0 283 24" fill="none" xmlns="http://www.w3.org/2000/svg">
<path fill-rule="evenodd" clip-rule="evenodd" d="M2.50509 11.1039V1.98879H11.0581C14.7912 1.98879 16.8919 3.71126 16.8919 6.26509V6.33228C16.8919 9.04541 14.954 10.6783 12.0996 11.0317V12.7268C16.0531 12.9583 18.1939 14.5688 18.1939 17.2047V17.2694C18.1939 20.1867 15.6575 22.0087 11.6565 22.0087H2.50509V12.6944V11.1039ZM14.6911 11.6689C16.5915 10.9048 18.6596 9.31423 18.6596 6.1655V6.09831C18.6596 2.61854 15.625 0.398229 11.0906 0.398229H0.772461V23.6017H11.5914C16.6265 23.6017 19.9616 21.1475 19.9616 17.2694V17.2047C19.9616 13.9888 17.4903 12.3982 14.6911 11.6689ZM265.038 23.6017V0.398229H282.645V4.93838H270.141V9.6453H281.142V14.1879H270.141V19.0591H282.81V23.6017H265.038ZM248.465 24C241.197 24 236.197 18.9272 236.197 12.0647V11.9975C236.197 5.40135 241.365 0 248.435 0C252.634 0 255.168 1.12757 257.604 3.18108L254.369 7.05911C252.569 5.56814 250.967 4.70689 248.268 4.70689C244.532 4.70689 241.565 7.98753 241.565 11.9328V11.9975C241.565 16.2414 244.497 19.3578 248.636 19.3578C250.501 19.3578 252.169 18.8948 253.468 17.9664V14.6509H248.3V10.2427H258.438V20.3186C256.037 22.3422 252.734 24 248.465 24ZM225.593 23.6017L214.289 8.85128V23.6017H209.223V0.398229H213.956L224.892 14.6833V0.398229H229.962V23.6017H225.593ZM194.619 13.8892L191.514 6.36463L188.414 13.8892H194.619ZM188.414 13.8892L184.446 23.6017H179.21L189.213 0.231493H193.95L203.953 23.6017H198.585L194.619 13.8892H188.414ZM168.81 23.6017V14.285H159.34V23.6017H154.205V0.398229H159.34V9.58058H168.81V0.398229H173.945V23.6017H168.81ZM138.867 24C131.996 24 126.896 18.7281 126.896 12.0647V11.9975C126.896 5.40135 131.896 0 139.065 0C143.469 0 146.103 1.45859 148.269 3.57931L145.001 7.32544C143.201 5.70005 141.366 4.70689 139.032 4.70689C135.099 4.70689 132.262 7.95518 132.262 11.9328V11.9975C132.262 15.9776 135.031 19.2931 139.032 19.2931C141.701 19.2931 143.334 18.2302 145.169 16.5725L148.434 19.8556C146.035 22.4094 143.369 24 138.867 24ZM106.185 15.6465V23.6017H104.452V0.398229H106.185V15.6465ZM119.693 0.398229H122.061L111.858 10.6385L122.494 23.6017H120.229L109.658 10.6882L119.693 0.398229ZM88.7458 24C82.0757 24 77.1433 18.7281 77.1433 12.0647V11.9975C77.1433 5.4362 82.0757 0 88.8134 0C92.9823 0 95.481 1.52333 97.8822 3.71126L96.6503 4.97074C94.6147 3.0143 92.2787 1.55816 88.7784 1.55816C83.1774 1.55816 78.941 6.0983 78.941 11.9328V11.9975C78.941 17.8668 83.245 22.4418 88.8134 22.4418C92.1785 22.4418 94.4795 21.1475 96.8481 18.8276L98.0149 19.9552C95.5486 22.3746 92.8821 24 88.7458 24ZM68.8056 11.9975C68.8056 6.26507 64.6067 1.55816 58.838 1.55816C53.0667 1.55816 48.933 6.19786 48.933 11.9328V11.9975C48.933 17.7349 53.1343 22.4418 58.9031 22.4418C64.6718 22.4418 68.8056 17.7996 68.8056 12.0647V11.9975ZM58.838 24C51.7673 24 47.1327 18.397 47.1327 12.0647V11.9975C47.1327 5.66769 51.8349 0 58.9031 0C65.9738 0 70.6058 5.60297 70.6058 11.9328C70.6409 11.9651 70.6409 11.9651 70.6058 11.9975C70.6058 18.3298 65.9062 24 58.838 24ZM27.195 23.6017V0.398229H28.9302V22.0087H42.6334V23.6017H27.195Z" fill="white"/>
</svg>
