<svg width="256" height="44" viewBox="0 0 256 44" fill="none" xmlns="http://www.w3.org/2000/svg">
<g clip-path="url(#clip0_1205_3387)">
<path d="M100.797 34.6151H95.389V32.857C94.4095 33.9723 92.8197 34.9861 90.589 34.9861C86.9391 34.9861 84.5381 32.484 84.5381 28.5966V16.8008H89.9463V27.3149C89.9463 29.1074 90.7231 30.2552 92.481 30.2552C93.9695 30.2552 95.389 29.2069 95.389 27.112V16.8008H100.797V34.617V34.6151Z" fill="white"/>
<path d="M103.197 29.6474C103.197 25.9628 106.308 24.4745 110.059 23.9351L114.048 23.2598V22.9556C114.048 21.6375 113.338 20.7919 111.58 20.7919C110.025 20.7919 109.214 21.4673 108.875 22.9212L103.702 22.1444C104.479 19.0013 107.285 16.4321 111.815 16.4321C116.346 16.4321 119.355 18.5613 119.355 22.7204V29.5823C119.355 30.4948 119.693 30.7665 120.742 30.6308V34.6194C117.631 35.1263 115.536 34.5524 114.624 33.0297C113.44 34.2463 111.683 34.9561 109.35 34.9561C105.766 34.9561 103.197 32.7924 103.197 29.6493V29.6474ZM114.048 26.7396L110.937 27.3135C109.518 27.5508 108.47 28.0233 108.47 29.2743C108.47 30.3897 109.315 30.998 110.599 30.998C112.391 30.998 114.048 30.0511 114.048 28.226V26.7377V26.7396Z" fill="white"/>
<path d="M123.567 16.8012H128.976V18.5937C129.955 17.4441 131.612 16.4302 133.877 16.4302C137.527 16.4302 139.826 18.9649 139.826 22.8542V34.6193H134.418V24.4094C134.418 22.6169 133.674 21.2988 131.916 21.2988C130.428 21.2988 128.973 22.3472 128.973 24.4419V34.6174H123.565V16.8012H123.567Z" fill="white"/>
<path d="M144.144 21.264H141.879V16.8008H144.144V11.8671H149.485V16.8027H152.967V21.2658H149.485V28.4666C149.485 29.9549 150.262 30.2246 151.614 30.2246C152.257 30.2246 152.561 30.1901 153.17 30.1232V34.552C152.223 34.6877 151.209 34.7891 149.925 34.7891C146.07 34.7891 144.144 33.5037 144.144 29.8535V21.2677V21.264Z" fill="white"/>
<path d="M158.005 28.3618C159.458 29.9516 161.757 30.8967 163.684 30.8967C165.105 30.8967 166.288 30.4241 166.288 29.4772C166.288 28.2949 165.105 28.1591 162.265 27.6522C159.325 27.0783 156.18 26.2996 156.18 22.4468C156.18 18.8292 159.392 16.4282 163.786 16.4282C166.998 16.4282 169.836 17.645 171.326 19.2673L168.62 22.749C167.268 21.3295 165.51 20.5509 163.752 20.5509C162.433 20.5509 161.588 21.0578 161.588 21.869C161.588 22.8485 162.636 22.9842 164.8 23.3898C168.012 24.0327 171.595 24.8093 171.595 28.8325C171.595 32.8556 168.012 34.9848 163.481 34.9848C160.371 34.9848 156.855 33.9365 155.2 32.01L158.006 28.3599L158.005 28.3618Z" fill="white"/>
<path d="M175.313 21.264H173.049V16.8008H175.313V11.8671H180.655V16.8027H184.137V21.2658H180.655V28.4666C180.655 29.9549 181.431 30.2246 182.784 30.2246C183.427 30.2246 183.731 30.1901 184.34 30.1232V34.552C183.392 34.6877 182.378 34.7891 181.095 34.7891C177.241 34.7891 175.313 33.5037 175.313 29.8535V21.2677V21.264Z" fill="white"/>
<path d="M186.539 29.6474C186.539 25.9628 189.65 24.4745 193.401 23.9351L197.389 23.2598V22.9556C197.389 21.6375 196.681 20.7919 194.922 20.7919C193.367 20.7919 192.556 21.4673 192.218 22.9212L187.045 22.1444C187.821 19.0013 190.628 16.4321 195.158 16.4321C199.687 16.4321 202.696 18.5613 202.696 22.7204V29.5823C202.696 30.4948 203.036 30.7665 204.084 30.6308V34.6194C200.974 35.1263 198.879 34.5524 197.965 33.0297C196.781 34.2463 195.023 34.9561 192.689 34.9561C189.106 34.9561 186.537 32.7924 186.537 29.6493L186.539 29.6474ZM197.389 26.7396L194.28 27.3135C192.861 27.5508 191.811 28.0233 191.811 29.2743C191.811 30.3897 192.658 30.998 193.94 30.998C195.733 30.998 197.388 30.0511 197.388 28.226V26.7377L197.389 26.7396Z" fill="white"/>
<path d="M212.005 34.6155H206.596V16.8012H212.005V18.5937C212.984 17.4441 214.608 16.4302 216.873 16.4302C219.002 16.4302 220.761 17.3427 221.774 18.8635C222.788 17.7481 224.546 16.4302 227.284 16.4302C230.901 16.4302 233.302 18.9649 233.302 22.8542V34.6193H227.893V24.4094C227.893 22.6169 227.185 21.2988 225.461 21.2988C224.042 21.2988 222.654 22.3472 222.654 24.4419V34.6174H217.245V24.4075C217.245 22.615 216.57 21.2969 214.813 21.2969C213.394 21.2969 212.006 22.3452 212.006 24.4401V34.6155H212.005Z" fill="white"/>
<path d="M241.405 32.8593V40.567H235.998V16.8012H241.405V18.5937C242.42 17.3102 244.111 16.4302 246.241 16.4302C251.142 16.4302 253.914 20.6216 253.914 25.7275C253.914 30.8334 251.142 34.9905 246.241 34.9905C244.111 34.9905 242.42 34.1124 241.405 32.8612V32.8593ZM241.371 26.2001C241.371 28.8707 242.826 30.3915 244.853 30.3915C247.22 30.3915 248.47 28.4651 248.47 25.7256C248.47 22.9862 247.22 21.0598 244.853 21.0598C242.826 21.0598 241.371 22.5462 241.371 25.2512V26.1982V26.2001Z" fill="white"/>
<path d="M59.5345 12.9233C54.5031 17.9546 54.5051 26.1118 59.5345 31.1412C64.5657 36.1724 72.7211 36.1724 77.7524 31.1412C82.7836 26.11 82.7836 17.9546 77.7524 12.9233C72.723 7.8939 64.5639 7.8939 59.5345 12.9233ZM73.9396 27.3284C71.0146 30.2535 66.274 30.2535 63.3471 27.3284C60.422 24.4034 60.422 19.6629 63.3471 16.7359C66.2722 13.809 71.0146 13.8109 73.9396 16.7359C76.8647 19.661 76.8647 24.4034 73.9396 27.3284Z" fill="white"/>
<path d="M70.5045 20.1593L66.7236 23.9402L78.5086 35.7251L82.2894 31.9442L70.5045 20.1593Z" fill="white"/>
<path d="M40.2764 21.9987C40.2764 18.5539 39.2856 15.1648 37.3914 12.2792L44.3693 5.26517L39.1399 0L32.162 7.01402C26.2836 3.15592 18.678 3.15592 12.7995 7.01402L5.80583 0L0.560547 5.26517L7.53837 12.2792C3.69712 18.1935 3.69712 25.8223 7.53837 31.7367L0.560547 38.7348L5.80583 44L12.7836 36.9859C18.662 40.8441 26.2677 40.8441 32.1461 36.9859L39.124 44L44.3693 38.7348L37.3914 31.7209C39.2856 28.8352 40.2949 25.4647 40.2764 22.0013V21.9987ZM12.0816 21.9987C12.0816 17.7432 14.6407 13.9009 18.5719 12.3163C22.5033 10.7291 27.0094 11.6856 29.9474 14.7515C32.8853 17.8173 33.68 22.3803 31.9316 26.2568L25.081 19.3674L19.8516 24.6326L26.7022 31.5221C23.4941 32.9635 19.7615 32.6933 16.805 30.7642C13.8671 28.8352 12.0816 25.5335 12.0816 22.0013V21.9987Z" fill="white"/>
</g>
<defs>
<clipPath id="clip0_1205_3387">
<rect width="254.571" height="44" fill="white" transform="translate(0.560547)"/>
</clipPath>
</defs>
</svg>
