<svg width="234" height="24" viewBox="0 0 234 24" fill="none" xmlns="http://www.w3.org/2000/svg">
<g clip-path="url(#clip0_1205_3368)">
<mask id="mask0_1205_3368" style="mask-type:luminance" maskUnits="userSpaceOnUse" x="0" y="0" width="234" height="24">
<path d="M233.867 0H0.867188V24H233.867V0Z" fill="white"/>
</mask>
<g mask="url(#mask0_1205_3368)">
<path d="M209.249 0H203.568L198.258 24H203.939L209.249 0Z" fill="white"/>
<path d="M233.868 0H228.186L222.877 24H228.558L233.868 0Z" fill="white"/>
<path d="M214.929 0L222.876 24H217.194L209.248 0H214.929Z" fill="white"/>
<path d="M74.4075 18.3151L78.4596 0H72.7786L67.4688 24H97.7686L99.0259 18.3151H74.4075Z" fill="white"/>
<path d="M105.476 0L100.166 24H121.3C126.362 24 131.374 19.8935 132.494 14.8283L128.071 9.14348H133.752C134.869 4.09382 131.684 0.000469474 126.638 0.000469474L105.476 0ZM122.587 18.3147H107.105L107.876 14.8279H126.814L126.808 14.8565C126.385 16.7663 124.495 18.3147 122.587 18.3147ZM128.072 9.14301H109.134L109.899 5.68486H125.381C127.29 5.68486 128.494 7.23319 128.072 9.14301Z" fill="white"/>
<path d="M195.859 24L197.888 14.8283L193.465 9.14348H199.146C200.263 4.09382 197.078 0 192.032 0H170.869L165.559 23.9995H171.24L173.27 14.8279H192.207L190.178 23.9995L195.859 24ZM193.465 9.14348H174.527L175.293 5.68533H190.774C192.683 5.68533 193.887 7.23366 193.465 9.14348Z" fill="white"/>
<path d="M138.171 0L132.861 24H163.161L168.471 0H138.171ZM158.737 18.3151H139.8L142.594 5.68533H161.532L158.737 18.3151Z" fill="white"/>
<path d="M54.6287 0H48.3448L33.5664 24H39.2474L54.6287 0H60.9121L65.0711 24H59.3901L54.6287 0Z" fill="white"/>
<path d="M30.7956 0L28.7698 9.15757H9.83228L11.8581 0H6.17709L0.867188 24H6.54866L9.83228 9.15757L14.2555 14.8429H27.512L25.4857 24H31.1671L36.4766 0H30.7956Z" fill="white"/>
</g>
</g>
<defs>
<clipPath id="clip0_1205_3368">
<rect width="233" height="24" fill="white" transform="translate(0.867188)"/>
</clipPath>
</defs>
</svg>
