<svg width="166" height="64" viewBox="0 0 166 64" fill="none" xmlns="http://www.w3.org/2000/svg">
<path d="M9.88835 32.4327C9.11394 32.2973 8.98915 33.2773 8.56943 35.6489L5.03429 55.6048C4.17493 60.5196 7.20954 62.78 11.7515 60.6216C11.7515 60.6216 50.6604 41.5054 50.7578 41.4574C50.814 41.4317 50.9886 41.3391 51.0262 41.1238C51.0691 40.8796 50.9053 40.6474 50.6587 40.6055C50.5963 40.5931 50.5348 40.5953 50.4762 40.6101C50.4762 40.6101 30.5586 48.5546 22.9648 50.9761C13.1529 54.1051 10.3515 50.9481 10.4342 36.0883C10.4489 33.3468 10.5776 32.5532 9.88835 32.4327Z" fill="white"/>
<path d="M55.1293 27.3661C55.1293 27.3661 18.6319 4.06504 18.5414 4.00642C18.49 3.97163 18.3215 3.87054 18.1143 3.94943C17.8793 4.03738 17.7631 4.29625 17.8522 4.5261C17.8749 4.58555 17.9092 4.6365 17.9504 4.67978C17.9504 4.67978 35.0354 17.55 41.0211 22.7684C48.7568 29.5111 47.4531 33.5072 34.5199 41.0425C32.1336 42.4314 31.3793 42.7287 31.6281 43.3774C31.9073 44.1055 32.8206 43.7094 35.093 42.853L54.2134 35.646C58.9173 33.8609 59.3259 30.1242 55.1293 27.3661Z" fill="white"/>
<path d="M4.42823 7.50391C4.42823 7.50391 1.71649 50.4327 1.70874 50.5375C1.70404 50.5995 1.69712 50.7962 1.867 50.9351C2.05875 51.095 2.34344 51.0687 2.50337 50.8789C2.54459 50.8318 2.57337 50.777 2.58997 50.7206C2.58997 50.7206 5.58946 29.6664 7.2653 21.9433C9.43033 11.9624 13.5885 11.1362 26.5433 18.6334C28.9338 20.0165 29.5654 20.5237 30.0144 19.9911C30.5183 19.395 29.7245 18.7988 27.8605 17.2535L12.1728 4.24994C8.3012 1.05541 4.80977 2.52789 4.42823 7.50391Z" fill="white"/>
<path d="M78.9255 18.944C82.1255 18.944 84.4295 17.344 84.4295 14.6134C84.4295 8.91735 75.9175 11.328 75.9175 7.70135C75.9175 6.44269 77.0055 5.63202 78.7975 5.63202C80.6322 5.63202 81.8268 6.63469 81.9762 8.17069H84.1308C83.9388 5.44002 81.8482 3.66935 78.7975 3.66935C75.7895 3.66935 73.6988 5.31202 73.6988 7.70135C73.6988 13.2054 82.1682 11.0507 82.1682 14.6347C82.1682 16.256 80.8028 16.9814 78.9255 16.9814C76.8135 16.9814 75.5548 15.744 75.3842 13.824H73.2295C73.4002 16.9174 75.5548 18.944 78.9255 18.944ZM94.5807 15.2747C94.2821 16.4907 93.2581 17.1734 91.6794 17.1734C89.8021 17.1734 88.4794 15.7867 88.3087 13.76H96.5221C96.5434 13.568 96.5647 13.2267 96.5647 12.9494C96.5647 10.2187 94.7941 7.85069 91.4661 7.85069C88.1594 7.85069 86.2821 10.3254 86.2821 13.3334C86.2821 16.32 88.3514 18.944 91.6794 18.944C94.3247 18.944 96.2661 17.4934 96.6501 15.2747H94.5807ZM91.4661 9.51469C93.2367 9.51469 94.3461 10.6027 94.4741 12.2454H88.3727C88.6927 10.4534 89.7807 9.51469 91.4661 9.51469ZM103.812 18.944C106.543 18.944 108.463 17.408 108.804 15.1467H106.756C106.415 16.3627 105.327 17.1307 103.855 17.1307C101.721 17.1307 100.633 15.4667 100.633 13.3974C100.633 11.328 101.7 9.66402 103.855 9.66402C105.305 9.66402 106.543 10.56 106.735 11.776H108.804C108.505 9.34402 106.329 7.85069 103.812 7.85069C100.42 7.85069 98.4788 10.432 98.4788 13.3974C98.4788 16.3627 100.42 18.944 103.812 18.944ZM120.727 8.02135H118.658V13.8454C118.658 15.7227 117.463 17.088 115.778 17.088C114.263 17.088 113.26 15.936 113.26 14.2294V8.02135H111.191V14.6347C111.191 17.1947 112.77 18.944 115.202 18.944C116.802 18.944 118.082 18.2187 118.658 16.8747V18.7734H120.727V8.02135ZM130.035 9.81335V8.02135H128.734C127.219 8.02135 126.366 8.66135 125.875 10.0907V8.02135H123.806V18.7734H125.875V13.9094C125.875 11.5627 126.515 9.81335 128.478 9.81335H130.035ZM132.041 3.52002V6.12269H134.345V3.52002H132.041ZM132.169 18.7734H134.239V8.02135H132.169V18.7734ZM138.521 4.65069V8.02135H136.323V9.81335H138.521V15.2534C138.521 17.4507 139.907 18.7734 142.083 18.7734H143.769V16.9814H142.254C141.209 16.9814 140.59 16.3414 140.59 15.1894V9.81335H143.769V8.02135H140.59V4.65069H138.521ZM151.635 11.5414L152.915 7.76535H155.176L150.696 20.16C150.326 21.2124 149.836 21.952 149.224 22.3787C148.613 22.8054 147.745 23.0187 146.621 23.0187C146.237 23.0187 145.868 22.9974 145.512 22.9547V21.2267H146.579C147.532 21.2267 148.172 20.7858 148.499 19.904C148.528 19.8187 148.57 19.6836 148.627 19.4987C148.698 19.3138 148.755 19.1716 148.797 19.072L144.723 7.76535H147.048L148.328 11.5414C149.011 13.6463 149.558 15.4027 149.971 16.8107C150.525 15.0044 151.08 13.248 151.635 11.5414ZM85.3468 35.8827L85.4962 38.2507C85.5672 39.0329 85.7379 39.6516 86.0082 40.1067H83.6615C83.3771 39.6943 83.2277 39.0471 83.2135 38.1654L83.1495 36.544C83.1068 35.5627 82.8864 34.8729 82.4882 34.4747C82.0899 34.0623 81.4499 33.856 80.5682 33.856H76.1522V40.1067H73.8695V24.9174H80.5042C82.1255 24.9174 83.3984 25.2943 84.3228 26.048C85.2615 26.7876 85.7308 27.8116 85.7308 29.12C85.7308 30.0444 85.5032 30.8267 85.0482 31.4667C84.6072 32.0924 83.9815 32.5334 83.1708 32.7894C83.9104 33.0027 84.4508 33.3654 84.7922 33.8774C85.1335 34.3751 85.3184 35.0436 85.3468 35.8827ZM76.1522 31.9574H80.5468C81.4286 31.9574 82.1184 31.7298 82.6162 31.2747C83.1282 30.8196 83.3842 30.1724 83.3842 29.3334C83.3842 28.5227 83.1211 27.9111 82.5948 27.4987C82.0828 27.0863 81.3432 26.88 80.3762 26.88H76.1522V31.9574ZM98.0052 34.688V35.3067H89.7065C89.8063 36.3876 90.1263 37.2054 90.6665 37.76C91.2075 38.3004 91.9397 38.5707 92.8638 38.5707C94.2582 38.5707 95.1678 37.9591 95.5945 36.736H97.7492C97.4505 37.8596 96.8677 38.7484 95.9998 39.4027C95.1465 40.0427 94.0875 40.3627 92.8212 40.3627C91.2425 40.3627 89.9702 39.8364 89.0025 38.784C88.0357 37.7316 87.5518 36.3378 87.5518 34.6027C87.5518 32.8676 88.0357 31.4738 89.0025 30.4214C89.9702 29.3689 91.2288 28.8427 92.7785 28.8427C94.3998 28.8427 95.6798 29.3903 96.6185 30.4854C97.5435 31.5804 98.0052 32.9814 98.0052 34.688ZM92.7785 30.6347C91.9397 30.6347 91.2502 30.8907 90.7092 31.4027C90.1835 31.9147 89.8558 32.6543 89.7278 33.6214H95.8078C95.7089 32.7254 95.3889 32.0071 94.8478 31.4667C94.3222 30.912 93.6318 30.6347 92.7785 30.6347ZM104.336 40.384C101.279 40.384 99.6709 39.1254 99.5147 36.608H101.648C101.733 37.376 101.983 37.9164 102.395 38.2294C102.807 38.5423 103.461 38.6987 104.357 38.6987C105.979 38.6987 106.789 38.1867 106.789 37.1627C106.789 36.7218 106.619 36.3804 106.277 36.1387C105.936 35.8969 105.324 35.6978 104.443 35.5414L103.312 35.328C100.98 34.9014 99.8134 33.8063 99.8134 32.0427C99.8134 31.0614 100.191 30.2863 100.944 29.7174C101.698 29.1343 102.736 28.8427 104.059 28.8427C107.088 28.8427 108.639 30.0729 108.709 32.5334H106.64C106.597 31.7938 106.37 31.2747 105.957 30.976C105.545 30.6631 104.912 30.5067 104.059 30.5067C103.376 30.5067 102.85 30.6347 102.48 30.8907C102.111 31.1467 101.925 31.5094 101.925 31.9787C101.925 32.4054 102.089 32.7396 102.416 32.9814C102.743 33.2089 103.263 33.3938 103.973 33.536L105.125 33.728C106.476 33.984 107.451 34.368 108.048 34.88C108.645 35.392 108.944 36.1031 108.944 37.0134C108.944 38.08 108.539 38.912 107.728 39.5094C106.917 40.0924 105.787 40.384 104.336 40.384ZM120.9 34.688V35.3067H112.601C112.701 36.3876 113.021 37.2054 113.561 37.76C114.102 38.3004 114.835 38.5707 115.759 38.5707C117.153 38.5707 118.063 37.9591 118.489 36.736H120.644C120.345 37.8596 119.763 38.7484 118.895 39.4027C118.041 40.0427 116.982 40.3627 115.716 40.3627C114.137 40.3627 112.865 39.8364 111.897 38.784C110.931 37.7316 110.447 36.3378 110.447 34.6027C110.447 32.8676 110.931 31.4738 111.897 30.4214C112.865 29.3689 114.124 28.8427 115.673 28.8427C117.295 28.8427 118.575 29.3903 119.513 30.4854C120.438 31.5804 120.9 32.9814 120.9 34.688ZM115.673 30.6347C114.835 30.6347 114.145 30.8907 113.604 31.4027C113.078 31.9147 112.751 32.6543 112.623 33.6214H118.703C118.604 32.7254 118.284 32.0071 117.743 31.4667C117.217 30.912 116.527 30.6347 115.673 30.6347ZM132.586 38.464H133.184V40.1067C132.872 40.1494 132.523 40.1707 132.139 40.1707C131.456 40.1707 130.944 40.0498 130.603 39.808C130.276 39.552 130.077 39.1538 130.005 38.6134C129.266 39.7796 128.072 40.3627 126.421 40.3627C125.213 40.3627 124.253 40.0783 123.541 39.5094C122.845 38.9263 122.496 38.1227 122.496 37.0987C122.496 35.1076 123.876 33.9698 126.635 33.6854L128.256 33.5147C128.825 33.4436 129.237 33.3014 129.493 33.088C129.764 32.8604 129.899 32.5404 129.899 32.128C129.899 31.5734 129.721 31.1751 129.365 30.9334C129.024 30.6774 128.448 30.5494 127.637 30.5494C126.756 30.5494 126.123 30.6987 125.739 30.9974C125.355 31.2818 125.134 31.7938 125.077 32.5334H122.965C123.122 30.0729 124.68 28.8427 127.637 28.8427C130.539 28.8427 131.989 29.9236 131.989 32.0854V37.9094C131.989 38.2791 132.189 38.464 132.586 38.464ZM126.741 38.6987C127.652 38.6987 128.405 38.4427 129.003 37.9307C129.6 37.4187 129.899 36.6934 129.899 35.7547V34.6027C129.629 34.8303 129.173 34.9796 128.533 35.0507L126.997 35.2214C126.173 35.3209 125.582 35.52 125.226 35.8187C124.872 36.1031 124.693 36.5084 124.693 37.0347C124.693 37.5609 124.864 37.9734 125.205 38.272C125.561 38.5564 126.073 38.6987 126.741 38.6987ZM140.504 28.928C140.816 28.928 141.023 28.9351 141.122 28.9494V30.976H140.589C139.493 30.976 138.648 31.2463 138.05 31.7867C137.453 32.3271 137.154 33.1094 137.154 34.1334V40.1067H135.021V29.0987H137.069V31.0614C137.765 29.6391 138.911 28.928 140.504 28.928ZM147.246 40.3627C145.682 40.3627 144.415 39.8364 143.449 38.784C142.482 37.7316 141.998 36.3378 141.998 34.6027C141.998 32.8534 142.482 31.4524 143.449 30.4C144.402 29.3618 145.667 28.8427 147.246 28.8427C148.597 28.8427 149.706 29.2124 150.574 29.952C151.455 30.6916 151.982 31.6871 152.153 32.9387H149.977C149.834 32.2134 149.514 31.6587 149.017 31.2747C148.533 30.8907 147.943 30.6987 147.246 30.6987C146.322 30.6987 145.582 31.04 145.027 31.7227C144.487 32.3911 144.217 33.3511 144.217 34.6027C144.217 35.8543 144.487 36.8214 145.027 37.504C145.582 38.1724 146.322 38.5067 147.246 38.5067C147.957 38.5067 148.562 38.3076 149.059 37.9094C149.557 37.5111 149.87 36.9351 149.998 36.1814H152.174C152.003 37.4614 151.47 38.4783 150.574 39.232C149.678 39.9858 148.569 40.3627 147.246 40.3627ZM159.774 28.8427C160.983 28.8427 161.928 29.184 162.611 29.8667C163.294 30.5351 163.635 31.488 163.635 32.7254V40.1067H161.502V33.024C161.502 31.488 160.727 30.72 159.176 30.72C158.466 30.72 157.826 30.9903 157.256 31.5307C156.687 32.0854 156.403 32.8747 156.403 33.8987V40.1067H154.27V24.9174H156.403V30.6134C157.242 29.4329 158.366 28.8427 159.774 28.8427ZM76.1522 46.2507V59.392H83.5975V61.44H73.8695V46.2507H76.1522ZM94.9946 59.7974H95.5919V61.44C95.2788 61.4827 94.9306 61.504 94.5466 61.504C93.8639 61.504 93.3519 61.3831 93.0106 61.1414C92.6829 60.8854 92.4841 60.4871 92.4133 59.9467C91.6734 61.1129 90.4788 61.696 88.8293 61.696C87.6201 61.696 86.6601 61.4116 85.949 60.8427C85.2521 60.2596 84.9037 59.456 84.9037 58.432C84.9037 56.4409 86.2829 55.3031 89.0426 55.0187L90.6639 54.848C91.2323 54.7769 91.6453 54.6347 91.9013 54.4214C92.1709 54.1938 92.3066 53.8738 92.3066 53.4614C92.3066 52.9067 92.1283 52.5084 91.7733 52.2667C91.4319 52.0107 90.8559 51.8827 90.0453 51.8827C89.1629 51.8827 88.5306 52.032 88.1466 52.3307C87.7626 52.6151 87.5416 53.1271 87.4853 53.8667H85.373C85.5294 51.4063 87.0868 50.176 90.0453 50.176C92.9466 50.176 94.3973 51.2569 94.3973 53.4187V59.2427C94.3973 59.6124 94.5961 59.7974 94.9946 59.7974ZM89.1493 60.032C90.0589 60.032 90.8133 59.776 91.4106 59.264C92.0079 58.752 92.3066 58.0267 92.3066 57.088V55.936C92.0361 56.1636 91.5813 56.3129 90.9413 56.384L89.4053 56.5547C88.5801 56.6543 87.9896 56.8534 87.6346 57.152C87.2788 57.4364 87.1013 57.8418 87.1013 58.368C87.1013 58.8943 87.2719 59.3067 87.6133 59.6054C87.9683 59.8898 88.4803 60.032 89.1493 60.032ZM103.062 50.176C104.598 50.176 105.821 50.6951 106.731 51.7334C107.642 52.7716 108.097 54.1724 108.097 55.936C108.097 57.6854 107.642 59.0791 106.731 60.1174C105.807 61.1698 104.584 61.696 103.062 61.696C101.441 61.696 100.218 61.056 99.3927 59.776V61.44H97.3447V46.2507H99.478V51.968C100.303 50.7734 101.498 50.176 103.062 50.176ZM100.31 58.816C100.879 59.5129 101.661 59.8614 102.657 59.8614C103.653 59.8614 104.442 59.5058 105.025 58.7947C105.594 58.0978 105.878 57.1164 105.878 55.8507C105.878 54.6276 105.594 53.6818 105.025 53.0134C104.456 52.3449 103.666 52.0107 102.657 52.0107C101.675 52.0107 100.893 52.352 100.31 53.0347C99.7272 53.7458 99.4354 54.7129 99.4354 55.936C99.4354 57.1591 99.7272 58.1191 100.31 58.816ZM114.305 61.7174C111.246 61.7174 109.64 60.4587 109.483 57.9414H111.617C111.702 58.7094 111.95 59.2498 112.363 59.5627C112.776 59.8756 113.43 60.032 114.326 60.032C115.947 60.032 116.758 59.52 116.758 58.496C116.758 58.0551 116.587 57.7138 116.246 57.472C115.905 57.2303 115.293 57.0311 114.411 56.8747L113.281 56.6614C110.948 56.2347 109.782 55.1396 109.782 53.376C109.782 52.3947 110.158 51.6196 110.913 51.0507C111.666 50.4676 112.705 50.176 114.027 50.176C117.057 50.176 118.606 51.4063 118.678 53.8667H116.609C116.566 53.1271 116.338 52.608 115.926 52.3094C115.513 51.9964 114.881 51.84 114.027 51.84C113.345 51.84 112.818 51.968 112.449 52.224C112.078 52.48 111.894 52.8427 111.894 53.312C111.894 53.7387 112.057 54.0729 112.385 54.3147C112.712 54.5423 113.23 54.7271 113.942 54.8694L115.094 55.0614C116.445 55.3174 117.419 55.7014 118.017 56.2134C118.614 56.7254 118.913 57.4364 118.913 58.3467C118.913 59.4134 118.507 60.2454 117.697 60.8427C116.886 61.4258 115.755 61.7174 114.305 61.7174Z" fill="white"/>
</svg>
