<svg width="24" height="24" viewBox="0 0 24 24" fill="none" xmlns="http://www.w3.org/2000/svg">
<path d="M4.11834 1H19.5976V23H17.3254V12.9226H17.3032C17.052 10.1374 14.71 7.95484 11.858 7.95484C9.00594 7.95484 6.66394 10.1374 6.41282 12.9226H6.39053V23H4.11834V1Z" fill="white"/>
<path d="M0 4.12258L0.923077 7.24516H1.70414V19.8774C1.31199 19.8774 0.994083 20.1952 0.994083 20.5871V21.4387H0.852071C0.459916 21.4387 0.142012 21.7564 0.142012 22.1484V23H8.09467V22.1484C8.09467 21.7564 7.77677 21.4387 7.38462 21.4387H7.2426V20.5871C7.2426 20.1952 6.9247 19.8774 6.53254 19.8774H5.68047V4.12258H0Z" fill="white"/>
<path d="M17.4675 19.8774C17.0753 19.8774 16.7574 20.1952 16.7574 20.5871V21.4387H16.6154C16.2232 21.4387 15.9053 21.7564 15.9053 22.1484V23H23.858V22.1484C23.858 21.7564 23.5401 21.4387 23.1479 21.4387H23.0059V20.5871C23.0059 20.1952 22.688 19.8774 22.2959 19.8774V7.24516H23.0769L24 4.12258H18.3195V19.8774H17.4675Z" fill="white"/>
</svg>
